<?xml version="1.0" encoding="utf-8"?>
<!-- Generator: Adobe Illustrator 14.0.0, SVG Export Plug-In . SVG Version: 6.00 Build 43363)  -->
<!DOCTYPE svg PUBLIC "-//W3C//DTD SVG 1.1//EN" "http://www.w3.org/Graphics/SVG/1.1/DTD/svg11.dtd">
<svg version="1.1" id="Layer_1" xmlns="http://www.w3.org/2000/svg" xmlns:xlink="http://www.w3.org/1999/xlink" x="0px" y="0px"
	 width="612px" height="792px" viewBox="0 0 612 792" enable-background="new 0 0 612 792" xml:space="preserve">
<g>
	<polygon fill-rule="evenodd" clip-rule="evenodd" fill="#FFFFFF" points="209,300 401.756,300 401.756,492.756 209,492.756 
		209,300 	"/>
	<path d="M339.291,441.788c-4.796,1.084-9.525,2.263-14.174,3.901c-3.051,1.078-6.137,2.066-9.227,3.038
		c-2.52,0.793-5.174,2.409-7.832,2.614c0.093-0.234,0.146-0.478,0.162-0.729c-0.352,0.202-0.703,0.202-1.054,0
		c0.348-0.418,0.753-0.769,1.216-1.054c-0.217,0.081-0.433,0.081-0.648,0c1.845-1.259,4.718-2.805,6.871-3.3
		c0.971-0.224,5.309-1.014,4.149-2.94c-1.301,0.325-2.42,0.554-3.577,1.148c-0.688,0.354-2.886,1.532-3.635,1.283
		c1.457-2.782,3.386-6.134,3.626-9.807c0.444-2.892,0.146-5.855-0.335-8.263c-1.311-5.045-3.43-10.277-6.528-14.473
		c-3.25-4.399-8.433-3.926-12.727-3.682c0-1.52,0.727-5.597,1.175-6.929c2.618-1.251,5.605-2.537,6.941-5.31
		c1.65-3.422,1.909-7.529,3.3-11.108c0.617-1.587,1.811-4.49,1.214-6.011c-0.298-0.759-0.956-1.825-1.574-2.471
		c0.271-0.771,0.443-1.543,0.596-2.782c0.604-4.899-4.328-10.946-9.545-8.097c0.318-2.552,2.135-4.29,0.746-6.957
		c-1.532-2.942-6.58-3.147-9.452-3.531c-0.677-0.091-2.148,0.064-2.72-0.371c-0.519-2.25-1.371-3.166,1.312-3.786
		c3.989-0.922,7.777-1.852,11.403-3.812c3.85-2.082,7.106-8.757,2.682-12.126c-6.511-4.958-15.856-7.282-23.923-6.958
		c-17.609,0.708-32.1,17.405-36.876,33.383c-2.081,6.962-2.07,15.361,1.041,22.049c0.314,0.676,1.124,1.538,1.048,2.265
		c-0.143,1.359,0.009,2.52,0.66,3.767c2.018,3.872,5.613,5.1,9.186,6.95c-4.547,4.962-9.717,10.804-12.046,17.195
		c-0.471,1.296-1.345,3.104-1.953,4.827c-3.343,0.202-4.963,4.457-4.255,8.813c-0.152-0.935-5.298-4.378-4.796-5.177
		c1.008-1.603,2.392-0.756,3.863-1.72c0.571-0.185,1-0.536,1.288-1.056c0.75-1.21-0.681-0.348-0.859-0.982
		c-0.187-0.671,2.158-2.742-0.297-2.495c-1.458,0.146-2.874,1.324-4.248,1.775c-1.489,0.491-5.341,0.867-4.168,3.212
		c3.01,2.853,5.39,6.079,8.022,9.238c-0.511,0.506-2.462-2.278-2.766-2.645c-1.036-1.251-1.87-2.702-3.474-2.299
		c-0.875-1.167-2.034-2.401-3.06-3.46c-0.5-0.517-1.884-2.115-1.884-0.592c-0.287,0.147-0.53,0.094-0.729-0.163
		c0.225,0.193,0.333,0.436,0.324,0.73c-2.192-0.198,4.838,4.074,2.107,4.619c-2.049-1.655-3.938-3.547-6.24-4.862
		c0,2.65,0,5.3,0,7.95c0,3.358,3.542,5.288,5.349,8.257c-1.714-1.713-3.545-3.401-5.349-5.024c-0.482,2.37,2.294,3.412,3.646,4.862
		c-1.716,0.737-2.448-1.169-3.646-1.701c0,2.455,1.437,2.389,2.755,4.294c-0.95,0.072-1.983-0.836-2.755-1.377
		c0,0.557-0.264,2.198,0,2.675c2.301,0.852,4.398,2.196,6.24,3.808c-2.069,0.143-4.307-1.086-6.24-1.782
		c0.162,0.487-0.395,1.62,0.567,1.54c-0.099-0.128-0.29-0.411-0.324-0.567c2.398,0.24,4.47,1.707,6.888,1.864
		c2.013-0.506-2.737-3.649-2.998-3.891c0.027-0.027,0.055-0.054,0.081-0.081c1.846,0.752,3.774,1.266,5.667,1.882
		c0.459,0.149,2.324,1.209,2.842,1.035c-0.48-2.038-2.091-3.302-2.432-5.348c1.881,0.513,4.439,2.135,5.946,3.332
		c1.146,0.911,3.418,2.85,4.994,2.26c0-0.856-2.892-1.862-3.282-2.837c-1.121-2.805,3.562,0.957,4.093,0.729
		c-0.443-0.886-1.304-1.468-1.864-2.269c-0.181-0.363,0.704-0.41,0.313-0.669c-0.625-0.428-3.231-3.216-3.069-4.194
		c-0.062-0.123,1.293,0.999,1.114,0.933c1.069,0.399,0.375,0.638,1.074,1.337c0.875-0.879,4.055,4.941,5.348,4.619
		c0.089-1.917,2.706,1.5,3.08,2.106c-0.514-0.039-1.027-0.039-1.54,0c0,1.957,3.388,2.832,4.457,3.972
		c-2.127,0.183-4.291-0.812-6.482-0.649c1.529,2.723,8.085,0.88,10.534,2.675c1.896,0.316,4.478,1.338,6.133,2.312
		c0.596,0.352,1.311,1.02,2.051,0.525c0.255-0.509-0.668-0.6-0.486-1.055c-0.047-0.008,3.094,0.773,1.216-0.161
		c-2.137-1.465-4.327-2.861-6.622-4.068c-2.003-1.054-4.09-1.938-6.264-2.577c-1.01-0.311-3.284-2.458-1.458-2.918
		c0.978,0.083,2.04,1.315,2.792,1.893c0.496,0.381,0.967,0.841,1.584,1.025c0.349-0.175,0.469-0.977,0.967-0.747
		c0.765,0.352,5.62,4.206,6.083,3.746c-0.085-0.058-2.354-1.572-1.297-1.783c2.021,0.757,2.839,4.34,5.187,4.862
		c0.697-0.232-1.4-2.906-1.599-3.305c-1.373-2.745-1.711-5.686-1.527-8.755c0.358-5.959,2.208-11.61,5.53-16.498
		c3.568-5.252,6.3-9.234,13.031-9.98c2.955-0.313,5.828,0.986,6.883,2.611c1.804,2.781,2.617,6.545,1.177,9.709
		c-1.465,3.22-3.044,6.474-3.56,10.01c-0.159,1.67-1.138,3.112-1.297,4.781c0.122,0.729,0.122,1.459,0,2.188
		c0.54,0.421,0.954,0.98,1.265,1.584c1.056,2.045-1.772,3.617-3.372,4.818c-1.501,1.298-3.29,2.205-4.786,3.512
		c-1.997,1.745-0.081,2.285,1.544,1.269c1.471-0.653,2.746-1.698,4.295-2.188c0.7,0.008,0.409,0.997,1.441,0.684
		c0.862-0.262,1.632-0.685,2.317-1.189c0.576-0.36,0.842-0.249,0.801,0.333c-0.451,0.843-1.645,1.211-2.455,1.613
		c-1.136,0.565-5.848,3.127-4.697,5.043c1.347,1.883,5.416-2.172,6.888-2.026c-0.575,0.288-4.464,4.104-1.702,3.646
		c0.539,0.091,1.731-0.659,2.301-0.876c1.529-0.583,3.977-1.399,6.377-1.859c-2.145,0.228-6.968,0.715-7.067,0.912
		c0.502-1.004,1.832-1.988,2.887-2.219c2.35-0.513,4.494-1.526,6.848-2.279c1.051-0.724,12.316-6.165,12.885-5.023
		c-0.643,1.203-2.093,1.672-2.674,2.917c-1.206,0.753-2.934,0.591-3.809,1.864c1.023,1.534,17.409-6.218,19.54-6.899
		c3.587-1.146,7.147-2.194,10.776-3.19c3.815-1.047,9.596-3.374,13.524-2.39c-2.234,1.799-6.489,2.227-9.237,3.016
		c-2.306,0.662-4.623,1.279-6.934,1.922c-0.928,0.257-4.974,0.632-5.304,1.626c6.109-1.493,12.164-3.199,18.28-4.664
		c1.417-0.339,5.702-0.481,5.89-2.457C347.148,439.891,340.245,441.572,339.291,441.788L339.291,441.788z"/>
	<path d="M297.037,458.635c-0.828,0.829-2.001,1.047-2.897,1.793c-0.384,0.32-0.892,1.803,0.142,1.287
		c0.879-2.262,3.977-1.634,4.862-3.403c-0.488-0.978-3.901-0.377-5.8-0.025C294.774,458.152,296.085,458.219,297.037,458.635
		L297.037,458.635z"/>
	<path d="M293.344,458.286c-0.64,0.06-1.303,0.16-1.972,0.288c0.412-0.045,0.735-0.079,0.896-0.1
		C292.483,458.446,292.868,458.374,293.344,458.286L293.344,458.286z"/>
	<path fill="#41AD49" d="M316.729,436.421c1.015,0.89,3.83-1.439,4.325-0.04c0.617,1.736,3.865,0.336,5.063-0.115
		c3.82-1.436,7.696-2.467,11.632-3.526c2.659-0.715,5.337-1.368,8.036-1.913c1.151-0.232,5.042-0.559,4.656-2.093
		c-3.946,0.957-7.869,2.083-11.801,3.12c-3.841,1.011-8.054,2.666-11.943,3.039c1.508-1.165,3.346-1.752,5.049-2.555
		c0.636-0.299,2.008-0.761,2.488-1.336c0.187-0.639,0.127-1.018-0.567-0.851c-1.195,0.286-1.443-0.208-2.731,0.251
		c-1.164,0.415-2.28,0.947-3.406,1.452c-1.604,0.719-3.518,2.047-5.207,2.47c0-1.274,5.124-3.981,6.188-4.698
		c2.709-1.829,5.428-3.673,8.399-4.945c0.548-0.092,4.472-1.122,4.572-0.749c0.318,1.195-1.211,2.332-1.971,3.028
		c-0.849,0.779-2.919,1.296-3.494,2.016c-0.549,1.644,2.979-0.257,3.089-0.349c1.623-1.358,3.301-2.729,4.366-4.594
		c-3.557-1.778-7.605,0.246-10.792,1.875c-2.181,1.114-4.288,2.366-6.351,3.684c-1.005,0.641-4.292,3.693-5.547,3.274
		c0.646-2.765,2.072-5.299,3.494-7.669c1.434-2.39,2.963-5.09,4.874-7.177c1.341-1.465,2.171-2.628,3.643-3.958
		c1.005-0.907,0.72-3.736-1.375-1.922c-2.146,1.86-3.416,5.069-4.757,7.517c-1.234,2.25-2.669,6.001-4.712,7.605
		c-0.752,0.59-5.979,4.133-6.135,3.647c-0.43-1.335,0.353-2.407,1.28-3.271c0.752-0.699,2.058-2.572,2.958-2.958
		c-1.451-0.362-3.651,2.526-5.086,3.489c-0.04-0.162-0.089-0.326-0.132-0.488c0.529,2.646,0.847,5.963,0.19,9.117
		C315.519,436.301,316.234,435.987,316.729,436.421L316.729,436.421z"/>
	<path fill="#00A7E4" d="M303.237,368.865c-1.117-0.791-2.861-1.486-4.498-1.153c-2.195,0.447-3.198,2.128-4.612,3.947
		c-0.458,0.589-1.046,1.37-1.551,1.984c-0.814,0.989-1.373,1.768-1.859,2.983c-0.486,0.081-0.729,0.729-1.296,0.567
		c-0.773-0.178-0.457-0.575-0.296-0.997c-0.589-0.537-1.569-1.49-2.291-2.511c-1.094-1.547-2.081-4.295-1.947-5.575l0.245,0.016
		c-0.001-0.003-0.005-0.005-0.006-0.009c0.081-0.162,0.244-0.395,0.405-0.405c0.948-0.058,2.139-0.094,3.077,0.05
		c0.144-0.757-0.722-1.154-1.375-1.266c-0.723-0.123-1.702-0.081-2.35,0.486c-0.163-0.486,0.567-0.648,0.891-0.972
		c1.54-0.486,2.836,0.486,3.89,1.621c0.729,0.081,1.459,0.243,2.026,0.729c0.081,0.162,0.162,0.405,0,0.486
		c-0.243,0.324-0.567-0.081-0.811-0.081c0.324,1.053,0.973,1.945,1.621,2.836c0.892-0.729,1.54-1.945,1.783-3.161
		c-1.459-2.188-4.214-2.593-6.321-3.971c-0.405-0.243-0.405-0.729-0.486-1.135c0-0.063,0.01-0.113,0.027-0.154
		c-7.133-3.285-13.168,0.915-15.61,3.072c0.018,0.295-0.131,0.641-0.382,0.891c-0.729,1.216-1.412,2.422-2.512,3.81
		c-1.247,1.571-2.431,3.061-3.323,4.7c-0.556,1.02-1.053,1.783-1.296,2.755c-0.243,1.135-1.054,2.27-0.486,3.404
		c-0.486,0.405-1.054,0.486-1.702,0.324c-2.107-1.54-5.105-1.378-7.698-1.135c-2.188,0.082-3.696,1.156-5.592,2.431
		c-1.48,0.997-3.267,2.646-2.917,4.7c0.34,1.998,1.017,2.961,2.026,4.214c1.091,1.354,1.813,1.715,3.322,2.593
		c0.222,0.128,0.567,0.405,0.811,0.081c-0.405-1.377,0.405-2.593,1.377-3.484c0.486-0.405-0.162-0.729-0.405-1.054
		c-0.405-0.648-0.648-1.296-0.324-2.106c-1.458-0.163-2.836,0.648-4.214,0.485c0-0.405,0.405-0.324,0.567-0.567
		c2.27-0.892,5.105-1.215,7.537-0.486c0.81,0.162,1.702,0.891,2.431,0.324l2.351-2.674c1.999-1.462,3.241-2.999,5.429-3.242
		c1.053,0.162,2.431-0.162,3.16,0.811c0.444-0.186,0.729-0.406,0.973-0.649c1.296-0.486,2.593-1.215,3.89-0.486
		c0.811,0.324,0.892,1.135,1.216,1.783c0.162,0.405-0.162,0.892,0.162,1.215c1.297,0.568,2.836,0.163,3.89,1.297
		c1.135,1.215,2.188,2.674,1.54,4.295c-1.296,2.431-3.565,4.133-5.186,6.402l-0.405,0.729c0.486,0.162,1.053,0.244,1.54,0.324
		c4.945,0,10.152-1.718,14.431-4.149c1.001-0.569,1.912-1.292,2.746-2.083c0.897-0.849,1.934-1.486,2.821-2.354
		c0.778-0.76,1.456-1.614,2.119-2.474c0.539-0.7,1.571-1.924,1.466-2.878c-1.99,1.393-7.295,3.909-9.319,1.459
		c-0.243-0.324-0.405-0.729-0.243-1.135c0.324-1.054,1.296-0.567,2.025-0.567c1.54-0.405,3.08-0.243,4.458-0.972
		c2.836-0.973,6.078-2.593,7.293-5.673C307.167,374.114,305.411,370.405,303.237,368.865L303.237,368.865z"/>
	<path fill="#FFFFFF" d="M286.833,373.685c0.722,1.021,1.702,1.974,2.291,2.511c0.058-0.153,0.096-0.311,0.053-0.461
		c1.053-0.811,1.984-2.076,2.713-3.21c-0.322-0.617-0.614-1.074-0.938-1.479c-0.458,0.264-0.768,0.463-1.551,0.361
		c-0.719-0.094-1.19-0.396-1.844-1.101c-0.552-0.593-0.32-1.171-0.284-1.713c-0.483-0.162-1.964,0.087-2.141-0.466l-0.245-0.016
		C284.752,369.39,285.739,372.138,286.833,373.685L286.833,373.685z"/>
	<path fill="#FFFFFF" d="M287.502,363.182c0.113-0.279,0.561-0.141,0.702-0.494c2.026-0.081,4.295-0.567,5.916,0.729
		c0.567,1.216-1.135,1.783-0.973,2.755c0.892,0.405,1.864,1.864,2.917,0.972c-0.324-1.377,0.567-2.431,0.892-3.646
		c0.081-1.296-0.243-2.431-0.729-3.565c-0.811-1.378-2.52-1.942-4.012-2.272c-2.944-0.651-5.712-1.05-8.873-0.888
		c-2.917,0.486-6.104,0.483-9.157,1.053c-2.209,0.412-3.364,0.556-5.51,1.135c-2.437,0.656-4.645,1.223-7.05,1.702
		c-0.328,0.065-0.811-0.729-0.811-1.297c0.162-1.54,2.142-1.488,3.08-1.621c6.424-0.909,13.127-1.54,19.692-1.945
		c-0.596-3.281-1.5-2.723-4.315-2.279c-2.127,0.335-4.688,0.813-6.382-0.881c-0.799-1.598,4.17-0.562,4.658-0.594
		c2.782-0.184,5.483-0.622,8.247-0.976c4.086-0.523,11.497-1.401,14.242-4.832c2.999-3.748,1.837-7.045-2.026-9.805
		c-7.367-4.716-18.301-6.918-26.716-4.962c-7.987,1.856-13.217,8.01-18.56,13.773c-4.555,4.914-7.279,11.887-8.905,18.305
		c-1.297,5.123-1.947,14.841,1.8,19.5c2.269-1.54,3.944-2.427,6.594-3.17c2.684-0.753,6.696-0.009,7.294,0.07
		c1.05,0.138,1.296,0.486,1.863-0.081c2.674-4.862,6.078-9.4,10.048-13.695l0.406-0.162c0.036,0.074,0.052,0.157,0.057,0.244
		C274.333,364.096,280.369,359.896,287.502,363.182L287.502,363.182z"/>
	<path d="M285.773,361.553c1.18,0.206,1.503,0.638,0.973,1.297c-1.867,0.249-4.171-0.259-5.753-1.297
		C281.763,360.01,284.876,361.553,285.773,361.553L285.773,361.553z"/>
	<path d="M278.236,362.688c0.081,0.081,0.162,0.162,0.081,0.324c-0.324,0.729-0.648-0.081-1.053,0c-0.729,0-1.215-0.324-1.783,0.163
		c-0.324,0.567-0.811,1.215-0.567,1.863c-0.243,1.783-0.243,3.404-0.567,5.106c-0.243,0.324-0.162,1.053-0.729,1.134
		c-0.324,0.081-0.405-0.243-0.486-0.405c-0.081-0.811-1.215-1.054-0.892-2.107c0.162-1.54,1.054-2.836,1.621-4.214
		c0.729-0.729,1.216-2.107,2.431-2.269L278.236,362.688L278.236,362.688z"/>
	<path fill="#00A7E4" d="M306.438,379.625c0.567,0.892,0.567,2.35,0.243,3.404c-0.162-0.649-0.567-1.459-1.216-1.945
		c-0.243-0.244-1.053,0-0.729-0.567l1.135-1.458C306.194,379.058,306.275,379.381,306.438,379.625L306.438,379.625z"/>
	<path d="M288.69,390.483c0.162,0.405,0.162,0.891-0.162,1.297c-0.81,0.081-1.458,0.324-2.188,0.729
		c-1.054,0.648-2.593,0.973-3.08,2.27c-0.324,0-0.648,0.162-0.973,0.081c-0.324-0.325-0.08-0.649,0-0.973
		c1.702-1.783,3.809-2.674,5.835-3.809C288.366,389.998,288.528,390.321,288.69,390.483L288.69,390.483z"/>
	<path fill="#FFFFFF" d="M282.208,399.397c0.08,0.243,0,0.486-0.082,0.648C281.964,399.884,281.803,399.316,282.208,399.397
		L282.208,399.397z"/>
	<path fill="#00A7E4" d="M282.937,405.557l-0.081,0.243c-0.973,1.054-1.945,2.025-3.08,2.917c0.405-1.378,1.702-2.432,2.836-3.404
		C282.775,405.313,282.856,405.395,282.937,405.557L282.937,405.557z"/>
	<path fill="#FFFFFF" d="M303.602,411.473c2.71,0.508,4.889,4.118,5.834,6.482c1.567,3.277,2.757,6.535,3.689,10.049
		c0.827,3.112,1.095,6.268,0.438,9.426c-0.366,1.761-1.009,3.449-1.731,5.092c-0.365,0.831-1.166,3.793-2.153,4.04
		c-0.081-0.163,0.081-0.405-0.081-0.487c-1.296,2.025-3.646,2.27-5.51,3.323c-3.485,1.62-6.969,3.322-10.535,4.78
		c-0.405,0.163-0.648,0.405-1.135,0.324c-0.162-0.242,0-0.647-0.081-0.972c0.567-0.973,1.945-0.404,2.35-1.54
		c0.567-1.54,2.593-1.701,3.242-3.241c0.486-0.081,0.811-0.729,1.458-0.567c1.54-1.053,3.08-2.188,4.619-3.323
		c2.188-1.215,4.132-3.078,6.159-4.942c0.243-0.243,0.567-0.486,0.405-0.811c-0.567-0.405-1.216,0-1.702,0.162
		c-0.566,0.405-1.377,0.567-1.62,1.054c0.486,0,1.054-0.405,1.539-0.405c-1.62,1.864-3.889,3.161-5.753,4.7
		c-1.458,0.892-2.755,1.945-4.213,2.837c-0.081,0.566-0.729,0.404-0.973,0.729c-1.053,0.486-1.945,1.459-3.079,1.702
		c0.567-1.702,0.485-3.81,2.35-4.862c0.486-0.405,1.377-0.729,1.135-1.459c-0.729,0-1.054,0.973-1.783,0.973
		c0.162-1.134,0.325-2.513,0.567-3.729c0.811-0.242,0.081-1.296,0.243-1.944c-1.135-5.43-1.864-11.021-2.755-16.45
		c0-1.054-0.081-2.106-0.162-3.16c-0.892,1.864-0.081,4.376-0.081,6.402c0.891,4.132,1.54,8.346,2.431,12.479
		c-0.405,1.134,0,2.431-0.486,3.483c-0.243,2.026-0.324,4.215-2.432,5.35c-1.54,0.973-2.998,2.269-4.538,3.322
		c-0.325-0.568-0.325-1.54,0.162-2.107c0.567-0.648,1.296-1.053,1.783-1.863c-0.973,0.08-1.297,1.377-2.27,1.539
		c-0.324-0.648,0.163-1.378,0.244-1.944l0.648-3.242c1.842-2.045,2.207-5.434,2.403-8.042c0.254-3.379-0.473-7.461-2.089-10.435
		c-0.654-1.203-0.836-3.076-1.009-4.449c-0.174-1.382-0.041-3.082,0.479-4.398c1.173-2.971,5.226-5.2,8.32-4.685
		C299.792,410.58,301.899,410.742,303.602,411.473L303.602,411.473z"/>
	<path d="M301.17,411.635c-0.243,0.161-0.648,0.08-0.972,0.161c-0.243,0.081-0.487,0.244-0.729,0.244
		C299.955,411.715,300.603,411.473,301.17,411.635L301.17,411.635z"/>
	<path d="M299.144,412.12c0,0.243-0.324,0.243-0.486,0.325l0,0C298.739,412.282,298.982,412.201,299.144,412.12L299.144,412.12z"/>
	<path d="M297.604,413.174c0-0.162,0.324-0.324,0.486-0.405C298.091,412.931,297.767,413.093,297.604,413.174L297.604,413.174z"/>
	<path d="M295.984,414.309l-0.081-0.081c0.162-0.162,0.405-0.406,0.648-0.406L295.984,414.309L295.984,414.309z"/>
	<path d="M295.498,414.552c-0.324,0.242-0.486,0.729-0.973,0.729C294.849,415.119,295.092,414.552,295.498,414.552L295.498,414.552z
		"/>
	<path d="M294.201,415.767c-0.162,0.567-0.648,1.216-0.892,1.864c-0.162,0.405-0.081,1.135-0.486,1.215
		C292.823,417.711,293.229,416.415,294.201,415.767L294.201,415.767z"/>
	<path d="M282.451,417.226c-0.648,0.162-1.458-0.161-2.188,0.081c-1.134,0.243-2.188,0.648-3.242,1.135l-0.08-0.162
		c1.539-0.973,3.565-1.783,5.51-1.135V417.226L282.451,417.226z"/>
	<path fill="#FFFFFF" d="M242.337,417.307c0.934,1.275,3.469,4.194,9.157,6.807c0,0-1.863,2.432-2.917,3.322
		c-1.945-1.134-3.566,0.811-5.105,1.865c0,0.08-0.162,0.161-0.081,0.242c0.405,0.243,0.649-0.486,1.054-0.647
		c0.972-0.405,1.945-1.378,3.16-0.892c0.163,0.081,0.082,0.405,0,0.486c-0.567,0.729-1.458,1.296-1.377,2.187
		c0.162,0.405,0.567,0.244,0.81,0.082c1.227-1.228,2.224-2.846,3.404-4.184c1.248-1.415,2.705-2.876,4.208-4.015
		c2.242-1.698,7.308-0.965,8.596,1.797c-1.864,3.402-2.755,7.13-3.971,10.777c-0.162,0.243-0.486,0.324-0.648,0.162
		c-0.324-0.243-0.486-0.567-0.486-0.892c-0.567-0.405-0.486-1.053-0.811-1.539c-0.973-1.054-1.702-3-3.404-2.756
		c-0.324,0.162-0.486,0.566-0.324,0.892c2.188,1.459,2.836,3.891,3.971,5.916c-0.081,0.566,0.486,0.891,0.892,1.053
		c0,1.54-0.405,2.918-0.243,4.457c0.243,0.811-0.324,1.459,0.081,2.188c0,0.242-0.162,0.405-0.162,0.647
		c-0.324,0.163-0.486-0.242-0.567-0.485c-0.405-2.026-0.405-3.972-0.486-6.078c-0.081-0.243-0.243-0.486-0.486-0.648
		c-0.324-0.162-0.729,0.243-0.891,0.567c-0.082,0.811,0.405,1.54,0.162,2.351c-0.892-0.892-0.729-2.999-2.35-2.999
		c-0.811-1.053-1.54-2.35-2.674-3.078c-0.486,0.647-2.026-0.568-1.783,0.972c0.811,1.377,1.945,2.675,2.27,4.214
		c-0.729,0.243-1.216-0.567-1.783-0.811c-0.892-1.134-1.864-2.188-2.836-3.16c0,0,0,0-0.081,0.081
		c0.162,0.486,1.215,0.972,0.567,1.54h-0.243l-5.187-4.943c-0.405-0.082-0.891,0.486-1.216,0l0.568-0.648
		c-1.054-0.649-1.054-1.621-0.973-2.756c-0.162-4.133,0.324-8.509,2.025-12.074H242.337L242.337,417.307z"/>
	<path fill="#FFFFFF" d="M268.512,418.685l-0.243,0.161c-0.162-0.161,0.081-0.324,0.162-0.404
		C268.593,418.36,268.512,418.604,268.512,418.685L268.512,418.685z"/>
	<path d="M237.07,419.9c0,0.242-0.244,0.405-0.406,0.485c-0.486-0.162-1.053,0.405-1.215-0.243
		C235.854,419.818,236.665,419.09,237.07,419.9L237.07,419.9z"/>
	<path fill="#FFFFFF" d="M230.101,419.737c-0.729,0.648-1.621,1.379-2.35,2.107c-0.405,0.081-0.648-0.324-0.973-0.567
		c0.081-0.648,0.811-0.324,1.216-0.648C228.642,420.143,229.453,420.224,230.101,419.737L230.101,419.737z"/>
	<path d="M273.699,420.386c-0.162,0.567-1.054,0.973-1.054,1.54l0.081,0.081l-2.026,2.27c-2.593,4.943-4.619,10.129-6.24,15.396
		c-0.567,2.918-1.053,5.754-0.972,8.832l-0.082,0.082l-0.243-0.243c-0.325-6.645,1.701-12.399,4.213-17.909
		c0.324-1.783,1.54-3.241,2.026-4.943c1.296-1.783,2.512-3.728,4.214-5.186L273.699,420.386L273.699,420.386z"/>
	<path fill="#FFFFFF" d="M266.486,421.116c-0.081,0.08-0.162,0.242-0.243,0.323h-0.081
		C266.243,421.358,266.243,421.116,266.486,421.116L266.486,421.116z"/>
	<path fill="#00A7E4" d="M238.204,421.926c-0.486,1.863-1.134,3.646-1.053,5.754l-0.163,0.161c-1.215-0.485-0.81-1.782-1.215-2.755
		c0.081-1.458,0.729-2.836,2.026-3.565C238.204,421.358,238.204,421.683,238.204,421.926L238.204,421.926z"/>
	<path fill="#FFFFFF" d="M265.919,421.845c-0.486,1.783-1.864,3.241-2.512,4.943l-0.243,0.162c-0.081-0.567,0.486-0.972,0.486-1.621
		C264.298,424.113,264.785,422.736,265.919,421.845L265.919,421.845z"/>
	<path fill="#41AD49" d="M321.186,422.898c-0.404,0.485-0.81,1.378-1.539,1.296c-0.243-0.161-0.081-0.566,0.081-0.811
		C320.213,423.142,320.619,422.573,321.186,422.898L321.186,422.898z"/>
	<path fill="#41AD49" d="M393.066,424.844c0.08,0.324,0.324,0.647,0.08,0.971c-0.891,0.487-1.701-0.323-2.512-0.485
		c-1.458,0.081-3.241-0.081-4.619,0.485c-3.646,0.487-7.131,1.379-10.615,2.271c-2.026,0.405-3.729,1.216-5.755,1.54
		c-2.35,0.566-4.618,1.134-6.888,1.862c-1.216,0.082-2.026,0.974-3.241,0.974c-1.459,0.972-3.242,1.296-4.781,2.026
		c-1.297,0.647-2.674,1.134-3.971,1.539c-0.567-0.567-1.459-0.405-2.106-0.486c0.162-0.324,0.566-0.243,0.811-0.486
		c0-0.324-0.082-0.648,0.242-0.892c1.621,0,2.756-1.296,4.214-1.701c1.864-0.729,3.565-1.784,5.511-2.513
		c0.405-0.405,0.973-0.567,1.54-0.811c-0.729,1.135-2.351,1.297-3.485,2.188c-2.35,0.972-4.618,2.106-6.807,3.484
		c-0.081,0.162,0.081,0.162,0.081,0.243c5.349-2.269,10.777-4.295,16.289-6.32c2.512-0.729,5.023-1.459,7.616-1.945
		c0.082,0,0.243-0.081,0.243-0.163c5.349-1.215,10.778-2.755,16.694-2.592C392.175,424.113,392.741,424.357,393.066,424.844
		L393.066,424.844z"/>
	<path fill="#FFFFFF" d="M223.861,430.272c0.162,0.162,0,0.486,0.162,0.648c-2.188-1.459-4.538-2.836-5.916-5.024
		C220.052,427.112,221.997,428.651,223.861,430.272L223.861,430.272z"/>
	<path fill="#41AD49" d="M367.458,426.545c-0.243,0.648-1.135,0-1.215,0.729c-0.487,0.081-0.811,0.405-1.216,0.405
		c-0.892,0.324-1.702,0.972-2.675,0.972l-0.081-0.081C363.812,427.599,365.514,426.625,367.458,426.545L367.458,426.545z"/>
	<path fill="#FFFFFF" d="M227.183,428.733c1.864,1.377,3.242,3.322,4.619,5.104c-0.486,0-0.567-0.729-1.134-0.648
		c-0.973-0.973-2.432-1.377-3.08-2.755l-1.782-2.512v-0.324C226.292,428.004,226.94,428.085,227.183,428.733L227.183,428.733z"/>
	<path fill="#41AD49" d="M334.72,428.733c-0.405,0.323-0.811,0.973-1.459,0.973v-0.325
		C333.747,429.22,334.233,428.814,334.72,428.733L334.72,428.733z"/>
	<path fill="#FFFFFF" d="M321.268,428.814c-0.405,1.782-1.216,3.402-1.783,5.104c-0.647,0.648-1.458,1.297-2.188,1.784
		c-0.486-0.487-1.136,0-1.702,0c0.081-0.568,1.054-0.649,1.054-1.379c0.323-0.647,0.973-1.053,1.458-1.539
		c0-0.243-0.162-0.324-0.162-0.568c1.054-1.135,2.269-2.187,3.161-3.402H321.268L321.268,428.814z"/>
	<path fill="#41AD49" d="M355.384,429.786c-1.621,0.486-3.079,1.701-4.7,2.188c-0.892,0.242-0.081,0.647-0.324,1.297
		c-0.891,0.081-2.026,0.242-2.837,0.647c-0.323-0.081-0.485,0.163-0.729,0.324c0.729,0.244,0.486,1.621,1.539,1.216v0.162
		c-1.62,0.082-3.403-0.324-4.862,0.567c-0.891,0-1.944,0.729-2.674,0.08c0.405-0.404,0.973-0.729,1.54-0.972
		c-0.324-0.162-0.811-0.081-1.215-0.081c-1.783,0.162-3.566,1.134-5.268,0.487c-0.082-0.082-0.325-0.163-0.244-0.406
		c1.864-1.054,3.972-1.54,6.078-2.188c2.675-0.972,5.592-1.216,8.104-2.593c0.243-0.081,0.567-0.081,0.648,0.161
		c0.081,0.244-0.081,0.649,0.081,0.811c1.701-0.405,3.161-1.296,4.862-1.781V429.786L355.384,429.786z"/>
	<path fill="#FFFFFF" d="M236.746,431.893c0.729,0.568,1.297,1.297,1.54,2.026c-0.243,0.081-0.486,0.243-0.648,0l-3.08-3.809v-0.244
		C235.611,430.191,236.098,431.164,236.746,431.893L236.746,431.893z"/>
	<path fill="#FFFFFF" d="M289.987,430.11c0,0.081-0.081,0.081-0.081,0.162C289.825,430.191,289.906,430.03,289.987,430.11
		L289.987,430.11z"/>
	<path fill="#FFFFFF" d="M289.501,430.677c-0.405,1.784-1.783,3.242-2.674,4.782l-0.243,0.162c-0.324-0.162-0.243-0.648-0.081-0.892
		c0.81-1.377,1.702-2.755,2.917-4.053H289.501L289.501,430.677z"/>
	<path fill="#FFFFFF" d="M290.473,431.407c0.162,1.054-0.729,1.701-1.215,2.512c-0.648,0.811-1.054,1.945-1.945,2.594
		c-0.162,0.081-0.324-0.081-0.243-0.244c0.567-1.458,1.377-2.836,2.431-4.052c0-0.404,0.243-0.81,0.486-1.135
		C290.23,431.002,290.392,431.245,290.473,431.407L290.473,431.407z"/>
	<path fill="#FFFFFF" d="M349.469,432.461c-0.73,0.486-1.703,0.486-2.513,0.729c-0.892,0-1.702,0.567-2.593,0.405
		c1.62-0.647,3.321-0.81,5.023-1.297L349.469,432.461L349.469,432.461z"/>
	<path fill="#FFFFFF" d="M286.827,432.622c-0.243,0.567-0.567,1.378-1.135,1.621C285.854,433.595,286.34,433.027,286.827,432.622
		L286.827,432.622z"/>
	<path fill="#FFFFFF" d="M290.878,433.353c0.324,2.106-0.729,3.808-0.892,5.834c-0.081,0.324-0.486,0.163-0.567,0.486
		c0.162,0.243,0.162,0.648,0,0.892c-0.162,0.081-0.243,0.324-0.405,0.242c-0.486-0.647-0.405-1.457-1.215-2.025
		c0-0.242-0.324-0.486-0.081-0.811c0.162,0,0.324-0.162,0.405-0.405l0.648,0.081c-0.081-0.323-0.648-0.323-0.81-0.647
		c0.081-0.892,0.648-1.783,1.459-2.188c0.081-0.729,0.405-1.378,1.053-1.702C290.635,433.108,290.959,433.027,290.878,433.353
		L290.878,433.353z"/>
	<path fill="#41AD49" d="M383.909,434.162c-0.487,0.73-1.297,0-2.026,0.162c-5.349-0.162-10.939,0.324-16.369,0.729
		c-2.999,0.567-6.078,0.486-8.995,1.378c-1.621,0.081-3.323,0.567-4.781,1.215c-0.243,0-0.648,0.082-0.567-0.243
		c2.107-1.135,4.7-1.135,6.97-1.863c8.184-1.378,16.693-2.026,25.121-2.026C383.422,433.757,383.909,433.757,383.909,434.162
		L383.909,434.162z"/>
	<path fill="#FFFFFF" d="M229.372,435.297c0,0.081-0.324-0.162-0.405-0.324C229.128,435.054,229.291,435.135,229.372,435.297
		L229.372,435.297z"/>
	<path fill="#FFFFFF" d="M244.931,437.16c0.811,0.486,1.458,1.379,1.783,2.27c-0.243,0.081-0.486,0.162-0.648,0.081
		c-1.296-1.377-2.512-2.756-3.485-4.295C243.472,435.621,244.04,436.675,244.931,437.16L244.931,437.16z"/>
	<path fill="#FFFFFF" d="M241.365,436.755v0.163c-0.486-0.243-1.053-0.892-1.377-1.459
		C240.554,435.621,240.959,436.269,241.365,436.755L241.365,436.755z"/>
	<path fill="#FFFFFF" d="M230.911,436.432c0,0.081-0.324,0-0.324-0.163C230.668,436.35,230.83,436.269,230.911,436.432
		L230.911,436.432z"/>
	<path fill="#FFFFFF" d="M234.72,437.079v0.162c-0.243,0-0.486-0.323-0.567-0.566C234.396,436.755,234.801,436.675,234.72,437.079
		L234.72,437.079z"/>
	<path fill="#FFFFFF" d="M242.013,437.565c-0.162-0.242-0.567-0.162-0.486-0.486C241.689,437.16,241.932,437.323,242.013,437.565
		L242.013,437.565z"/>
	<path fill="#41AD49" d="M371.834,437.646c0,0.405-0.405,0.567-0.729,0.648c-3.161,0.162-5.916,1.216-8.591,2.27l-2.106,1.458
		c-0.081,0.163,0,0.405,0.162,0.324c1.782,0.081,3.322-0.81,4.943-0.972c-0.243,0.486-0.811,0.647-1.297,0.892
		c-1.62,0.647-3.485,1.62-5.268,1.053c-0.486-0.242-0.729-0.729-0.486-1.216c2.026-1.62,4.539-2.512,6.97-3.241l0.161-0.243
		l-0.242-0.162c-2.513-0.162-4.7,0.811-7.132,0.811c-1.053,0.567-2.269,0.486-3.403,0.811l-0.162-0.082
		c1.297-0.729,3.08-0.891,4.619-1.377c3.971-0.729,8.185-1.296,12.155-1.378C371.591,437.323,371.754,437.484,371.834,437.646
		L371.834,437.646z"/>
	<path fill="#FFFFFF" d="M237.961,437.971c-0.324,0.163-0.568-0.242-0.649-0.486v-0.243
		C237.637,437.323,237.88,437.729,237.961,437.971L237.961,437.971z"/>
	<polygon points="350.684,437.403 350.765,437.403 350.765,437.323 350.684,437.323 350.684,437.403 	"/>
	<path fill="#FFFFFF" d="M243.796,437.89C243.958,438.052,243.877,437.971,243.796,437.89L243.796,437.89L243.796,437.89z"/>
	<polygon fill="#FFFFFF" points="223.131,438.944 223.212,438.944 223.212,438.862 223.131,438.862 223.131,438.944 	"/>
	<path fill="#FFFFFF" d="M225.401,442.347l0.891,1.135l-0.162,0.162c-0.729-0.324-1.458-0.729-2.269-0.973
		c-0.73-0.648-0.973-1.701-2.026-1.701c-0.405-0.486-1.215-0.892-1.377-1.54C222.483,439.511,223.942,441.212,225.401,442.347
		L225.401,442.347z"/>
	<path fill="#41AD49" d="M280.425,439.916c-1.054,1.945-2.836,3.646-3.89,5.592c-1.864,2.917-3.485,5.834-5.43,8.67
		c-0.162,0.649-0.729,0.974-1.054,1.54c-0.567,1.135-1.621,2.188-1.54,3.485c-0.162,0.242-0.405,0.161-0.648,0.161
		c-0.81-0.811,0.081-1.944,0.486-2.755c1.864-3.403,4.295-6.564,5.916-10.13c0.163-0.081,0.244-0.242,0.244-0.405
		c0-0.081-0.163,0-0.163-0.081c-3.079,3.08-5.51,6.646-8.185,10.049c-0.405,0.325-0.892,0.567-1.458,0.405
		c-0.486-0.243-0.648-0.811-0.729-1.296c0.162-1.297,0.324-2.594,0.972-3.646c0.729-0.974,0.487-2.595,1.864-2.918
		c0.324,0.081,0.162,0.567,0.162,0.811c-0.811,1.216-0.811,2.755-1.377,4.133l0.081,0.892c1.054-0.244,1.54-1.378,2.351-1.945
		c3.403-4.295,7.374-8.023,10.859-12.317C279.533,440.401,279.938,439.187,280.425,439.916L280.425,439.916z"/>
	<path fill="#FFFFFF" d="M248.253,441.375c-0.648,0.162-1.216-0.486-1.458-1.054l0.081-0.325
		C247.523,440.078,247.848,440.889,248.253,441.375L248.253,441.375z"/>
	<path fill="#41AD49" d="M306.924,440.483c-0.243,0.323-0.567,0.405-0.892,0.567l-0.081-0.162
		C306.194,440.727,306.519,440.401,306.924,440.483L306.924,440.483z"/>
	<path fill="#FFFFFF" d="M237.313,441.293v0.082l-0.405-0.405C237.07,440.97,237.313,441.131,237.313,441.293L237.313,441.293z"/>
	<path fill="#41AD49" d="M305.465,441.293c-0.243,0.244-0.648,0.568-1.053,0.568C304.654,441.537,305.141,441.293,305.465,441.293
		L305.465,441.293z"/>
	<path fill="#FFFFFF" d="M235.044,442.509c-0.405-0.162-0.973-0.242-0.973-0.892c-0.081-0.161,0.162-0.161,0.325-0.161
		C234.558,441.861,235.044,442.022,235.044,442.509L235.044,442.509z"/>
	<path fill="#FFFFFF" d="M288.123,443.563c0.162,0.162-0.081,0.324-0.162,0.485c-0.081,0.082-0.081,0-0.162-0.08
		C287.88,443.806,287.88,443.563,288.123,443.563L288.123,443.563z"/>
	<path fill="#FFFFFF" d="M245.579,444.453c0,0,0,0-0.081,0.082l-0.162-0.162C245.417,444.373,245.498,444.292,245.579,444.453
		L245.579,444.453z"/>
	<polygon points="242.743,444.535 242.824,444.535 242.824,444.535 242.743,444.535 242.743,444.535 	"/>
	<path fill="#41AD49" d="M240.636,445.751c-0.892-0.082,0.081,1.053-0.811,1.053c-0.405,0-0.648-0.405-0.973-0.647
		c0.243-0.567,1.702,0,1.054-0.729c0-0.163,0.081-0.324,0.243-0.243C240.393,445.427,240.554,445.589,240.636,445.751
		L240.636,445.751z"/>
	<path fill="#FFFFFF" d="M254.087,446.398c-0.243,0-0.567-0.242-0.648-0.485l-0.162-0.405
		C253.602,445.751,254.006,445.993,254.087,446.398L254.087,446.398z"/>
	<path d="M342.904,446.156c-0.324,0.162-0.729,0.242-1.135,0.242c0.081-0.242,0.486-0.324,0.729-0.405
		C342.66,446.074,342.823,445.993,342.904,446.156L342.904,446.156z"/>
	<path fill="#41AD49" d="M347.037,446.562c-0.081,0.405-0.162,0.892-0.648,0.972c-1.378,0.406-2.918,0.324-4.295,0.811
		c-1.459,0.081-2.837,0.729-4.457,0.729c-1.621,0.567-3.242,0.892-4.943,1.216c-2.106,0.081-3.809,1.297-5.835,1.621
		c-2.593,0.729-5.024,1.701-7.293,3.078c0.081,0.081,0.162,0.244,0.243,0.244c3.16-0.486,6.401-1.378,9.644-1.945
		c0.324,0.08,0,0.404-0.081,0.567c-1.864,0.243-3.485,0.892-5.268,1.297c-2.27,0.242-4.295,1.053-6.482,1.458
		c-0.244-0.162-0.649-0.081-0.729-0.486c0.162-0.648,0.81-1.054,1.296-1.377c2.27-1.54,5.024-2.026,7.456-3.323
		c-0.486-0.405-0.811,0.163-1.297,0.082c-1.621-0.082-2.998,0.891-4.457,1.215c-0.729,0.567-2.025-0.081-2.513,0.729
		c-0.485,0.081-1.053,0.242-1.377-0.162c0-0.892-0.973-0.648-1.459-0.567c-0.892,0.486-1.944,0.406-2.917,0.647
		c-0.243-0.08-0.486-0.241-0.567-0.404c0.405-0.729,1.297-0.811,1.945-1.216c1.458,0,2.431-1.134,3.89-1.297
		c1.053-0.405,2.269-0.729,3.321-0.891c-0.404,0.405-1.053,0.161-1.458,0.648c-1.134,0.729-2.512,0.405-3.565,1.297
		c-0.811-0.244-1.215,0.323-1.702,0.729c0.729,0.243,1.702-0.162,2.513-0.243c3.646-0.729,7.212-1.54,10.777-2.188
		c-0.081,0.242-0.647,0.162-0.892,0.405l0.244,0.162c4.132-0.729,8.185-1.945,12.479-2.513c2.674-0.486,5.267-1.459,8.104-1.459
		C346.875,446.318,346.875,446.479,347.037,446.562L347.037,446.562z"/>
	<path fill="#FFFFFF" d="M258.383,447.533l-0.081,0.162c-0.243-0.081-0.486-0.242-0.567-0.486c0.081-0.161,0.324-0.242,0.567-0.324
		L258.383,447.533L258.383,447.533z"/>
	<path fill="#FFFFFF" d="M247.604,448.264c-0.486-0.164-1.134-0.244-1.458-0.73C246.632,447.453,247.281,447.776,247.604,448.264
		L247.604,448.264z"/>
	<path fill="#FFFFFF" d="M255.871,447.614l-0.081,0.081l-0.163-0.242C255.708,447.371,255.871,447.453,255.871,447.614
		L255.871,447.614z"/>
	<path fill="#FFFFFF" d="M293.066,451.342c-1.702,1.216-3.242,2.35-4.862,3.81c-1.945,0.566-3.646,1.539-5.511,2.188
		c-0.972,0.567-2.026,0.973-3.079,1.459l-0.405-0.082c0.324-1.62,2.107-2.674,3.242-3.728c0.648-0.081,1.458-0.972,2.026-0.081
		c1.702,0.081,2.431-1.944,3.728-2.431c-0.162,0.729-1.134,1.215-1.134,2.025c0.162,0.244,0.324,0.081,0.567,0.081
		c1.134-1.053,2.025-2.025,2.512-3.483c0.648-0.163,1.216-0.892,1.702-1.297l2.431-2.188
		C294.039,448.83,293.472,450.126,293.066,451.342L293.066,451.342z"/>
	<path fill="#FFFFFF" d="M283.504,448.344c0.081,0.972-0.081,1.864-0.324,2.756c-2.674,1.134-5.268,2.35-8.022,3.402
		c-0.081-0.08,0.081-0.242,0.162-0.404c2.269-1.782,4.619-3.647,6.889-5.349C282.613,448.668,283.342,447.048,283.504,448.344
		L283.504,448.344z"/>
	<path fill="#FFFFFF" d="M256.113,451.261c1.216,0.811,2.432,1.378,3.484,2.351c0.325,0.08,0.487,0.405,0.649,0.566
		c-2.188-1.134-4.457-2.106-6.969-2.755c-1.378-0.729-3.08-1.378-3.728-2.998C251.899,448.91,254.006,450.126,256.113,451.261
		L256.113,451.261z"/>
	<path fill="#41AD49" d="M322.483,448.83c-0.487,0.405-1.135,0.485-1.702,0.567C321.268,449.154,321.834,448.83,322.483,448.83
		L322.483,448.83z"/>
	<path fill="#FFFFFF" d="M287.231,448.91c0,0.325,0.081,0.73-0.243,0.811c-0.243,0.082-0.486-0.08-0.567-0.323
		C286.421,448.992,286.908,449.073,287.231,448.91L287.231,448.91z"/>
	<path fill="#FFFFFF" d="M286.016,449.641c0.081,0.648-0.648,0.324-0.892,0.648c-0.243-0.244,0-0.568,0-0.892
		C285.368,449.315,285.935,449.235,286.016,449.641L286.016,449.641z"/>
	<path fill="#41AD49" d="M241.284,450.045c-1.459-0.161-3.161-0.242-4.62-0.161c1.378-0.243,2.836-0.405,4.214-0.243
		C241.041,449.803,241.284,449.803,241.284,450.045L241.284,450.045z"/>
	<polygon fill="#FFFFFF" points="290.392,450.37 290.392,450.37 290.392,450.289 290.392,450.289 290.392,450.37 	"/>
	<path fill="#41AD49" d="M234.071,450.937c-0.162-0.161-0.567-0.161-0.486-0.405C233.991,450.37,233.91,450.855,234.071,450.937
		L234.071,450.937z"/>
	<path fill="#FFFFFF" d="M290.149,450.531c0.081,0.324-0.324,0.486-0.486,0.568h-0.162
		C289.42,450.694,289.906,450.613,290.149,450.531L290.149,450.531z"/>
	<path fill="#41AD49" d="M340.312,451.342c-0.082,0.568-0.567,0.974-0.567,1.621c-1.135,0.486-2.351,0.729-3.566,1.054
		c-0.162,0.081-0.243,0.243-0.243,0.405l0.486,0.324c-0.811,0.566-1.782,1.053-2.755,1.377c-0.567,0.162-0.973,0-1.458-0.243
		c-0.893-0.405,0.323-0.892,0-1.539c0.729-0.729,1.863-0.649,2.592-1.215c-0.972-0.163-2.025,0.323-2.917,0.08v-0.405
		C334.72,452.152,337.475,451.586,340.312,451.342L340.312,451.342z"/>
	<path fill="#FFFFFF" d="M287.475,451.586c-0.244,0.566-0.729,0.891-1.216,1.053c-0.162-0.567,0.567-0.811,0.891-1.134
		C287.231,451.505,287.394,451.505,287.475,451.586L287.475,451.586z"/>
	<path fill="#41AD49" d="M249.955,455.475c0.162,0.162,0.486,0.243,0.567,0.487c-0.972-0.568-2.269-0.325-3.16-1.055l-1.135-0.161
		l0.081-0.082C247.604,454.583,248.82,454.988,249.955,455.475L249.955,455.475z"/>
	<path fill="#41AD49" d="M238.609,454.827c-1.216,0.405-2.512,0.485-3.808,0.647c-0.163,0-0.405,0-0.325-0.242
		c0.729-0.486,1.783-0.325,2.675-0.486C237.556,454.746,238.204,454.664,238.609,454.827L238.609,454.827z"/>
	<path fill="#41AD49" d="M238.934,457.583c-0.567,0.485-1.701-0.244-2.188,0.566c0,0.566-0.405,0.891-0.891,1.054
		c-0.973,0.242-2.026,0.081-2.755-0.568c-0.081-0.242-0.324-0.405-0.162-0.729c0.486-0.243,1.134-0.405,1.621-0.811
		C236.017,456.853,237.637,456.447,238.934,457.583L238.934,457.583z"/>
	<path fill="#41AD49" d="M304.735,462.444c-0.243,0.647-1.053,0.162-1.539,0.486c-1.297,0-2.351,0.648-3.646,0.566
		c0.081-0.485,0.729-0.647,1.134-0.729c1.297-0.082,2.432-0.729,3.89-0.648L304.735,462.444L304.735,462.444z"/>
	<path fill="#FFFFFF" d="M282.246,369.763c0,0-4.402,5.015-3.734,6.029c0.667,1.014,0.934,1.014,0.934,1.014s3.146,0.083,5.388,1.36
		c0.373,0.212,0.747,0.507,0.747,0.507s2.027-1.441,1.947-2.614c-0.08-1.174-1.84-4.801-2.934-5.495
		S282.246,369.763,282.246,369.763L282.246,369.763z"/>
	<path d="M285.692,370.629c-0.648-0.729-1.377-1.701-2.512-1.215c0-0.811,1.378-0.729,0.973-1.702
		c-0.162-0.244-0.324-0.163-0.567-0.163c-1.945,1.864-3.565,4.133-4.862,6.402c-0.567,0.082-0.486-0.567-0.648-0.891
		c-0.324-2.106,0.081-4.133,1.621-5.592c0.811-0.729,1.864-0.162,2.755-0.081v-0.162c-0.648-0.568-2.026-0.649-2.755-0.082
		c-1.945,1.378-2.431,3.81-2.269,5.916c0,1.054,0.972,1.783,0.486,2.836c0.082,0.081,0.163,0.244,0.324,0.244
		c0.325-0.081,0.73,0.405,0.973-0.081c-0.729-0.973,0.198-1.622,0.567-2.594c0.486-1.215,1.54-2.106,2.35-3.079
		c0,0.002,0,0.005,0,0.007c-0.137,0.718-0.254,2.233,0.96,2.961c1.129,0.677,2.187,0.273,2.74-0.206
		c0.174,0.026,0.435,0.314,0.724,0.711c0.404,1.054,0.938,1.66,0.762,2.848c-0.324,0.405-1.134,0.567-0.81,1.216
		c0.405,0.162,0.729-0.081,0.891-0.406C288.528,375.006,286.665,372.817,285.692,370.629L285.692,370.629z"/>
	<path d="M284.152,377.599c0.738,0.302,1.702,0.486,1.783,1.459c-0.324,0.162-0.486-0.244-0.811-0.405
		c-2.269-1.702-5.267-1.945-8.022-1.216c-0.162-0.081-0.324,0-0.405-0.243c0.082-0.81,1.134-0.567,1.783-0.729
		C280.425,376.464,282.37,377.031,284.152,377.599L284.152,377.599z"/>
	<path fill="#00A7E4" d="M278.233,412.845c0.299-0.007,0.618,0,0.936,0.007c0.108-0.107,0.122-0.291,0.122-0.488
		c1.459-1.783,2.998-3.484,4.619-5.024l0.324-0.729c-0.162-0.163-0.405-0.405-0.648-0.325c-1.702,1.378-3.565,3.079-4.457,5.105
		c-0.081,0.324,0.081,0.892-0.324,1.135c-0.243,0.162-0.729,0.162-0.973-0.162c-0.405-0.243,0-0.648-0.081-0.973
		c-0.648-1.782,0.162-3.728,0.324-5.591v-0.405c-0.729,0-1.378,0.405-2.188,0.405c-0.973-0.082-0.243,0.973-0.567,1.539
		c-0.716,2.147-1.819,4.219-2.396,6.44c1.038-0.396,2.373-0.735,4.08-0.873C277.406,412.84,277.814,412.809,278.233,412.845
		L278.233,412.845z"/>
	<path fill="#00A7E4" d="M303.844,381.569l-0.243,0.324c0.162,0.243,0.486,0.486,0.486,0.811c-0.405,0.81-0.648,1.621-1.054,2.512
		c-0.891,1.864-2.755,3.08-3.646,4.862c0.567,0.405,1.458,0.081,2.026,0.486c0.081,0.162,0,0.324-0.081,0.405
		c-1.458,0.243-2.917-0.324-4.052,0.729c-0.891,1.378-2.593,1.864-3.809,2.999c-1.297,0.729-2.755,1.053-3.89,2.107
		c-0.324,1.215,0.811,2.025,1.297,2.998l-0.162,0.243c-0.729-0.162-1.215-0.729-1.783-1.054c-0.486-0.405-0.729-0.973-0.81-1.621
		c-1.377,0.405-2.755,0.973-4.052,1.621c-0.081,0.162,0.081,0.405,0.243,0.567c0.567,1.863,2.836,1.054,4.214,1.621
		c0,0.485-0.567,0.567-0.81,0.729c-0.568,1.863-1.378,3.565-1.702,5.511c-0.405,0.566-0.405,1.62-1.377,1.538
		c-0.729-0.242-0.081-1.053-0.162-1.62c-0.162,0.082-0.405,0.082-0.567,0.162c-1.134,1.863-2.917,3.323-3.728,5.268
		c0.081,0.067,0.172,0.11,0.261,0.157c3.794,0.373,5.57,2.167,6.386,3.612c0.195,0.285,0.365,0.589,0.484,0.932h0.204
		c0.157-3.949,3.502-6.081,6.227-7.505c0.433-1.672,1.431-4.327,1.755-6.921c0.243-1.053-0.892-1.459-0.729-2.593
		c0.539-0.693,2.691-1.089,3.486-1.542c1.603-0.915,2.92-1.205,4.059-2.795c2.086-2.911,2.159-5.971,2.503-9.52
		C304.898,384.811,305.303,382.785,303.844,381.569L303.844,381.569z"/>
	<path fill="#FFFFFF" d="M285.842,402.042c-0.007-0.072-0.028-0.143-0.069-0.213c-1.215-0.244-2.512-0.244-3.403-1.054
		c0.405,1.701,1.296,3.322,2.593,4.537l0.324-0.323c0.123-0.369,0.384-0.829,0.398-1.208
		C286.031,402.781,285.921,402.246,285.842,402.042L285.842,402.042z"/>
	<path fill="#00A7E4" d="M257.113,391.034c-1.544-0.222-2.988,0.819-3.663,2.149c-0.768,1.514,0.754,2.705,2.1,3.033
		C255.773,393.803,256.945,391.262,257.113,391.034L257.113,391.034z"/>
	<path fill="#00A7E4" d="M275.481,398.83c-0.811,0.081-0.567,1.216-1.377,1.135c-1.297-0.486,0.243-1.135,0.081-1.863
		c0.245-0.245,0.474-0.477,0.708-0.712c0.668-0.946,1.839-2.474,3.028-3.784c1.08-1.19,1.564-2.629,1.775-3.535
		c0.033-0.313,0.022-0.632-0.082-0.964c-0.892-1.215-2.188-2.755-3.89-2.836c-2.431,2.269-3.89,5.268-5.754,7.86
		c-0.405,0.73,0.729,0.811,0.487,1.54c-0.244,0.405-0.487,0.811-0.973,0.891c-0.405-0.161-0.892-0.08-1.135-0.485
		c-0.486-0.567,0.162-1.054,0.243-1.54c1.783-2.836,3.565-5.591,5.835-8.185c0.324-0.81,1.01-1.523,0.649-2.425
		c-0.361-0.831-1.263-0.938-2.189-1.141c-0.243-0.163-0.648-0.081-0.891,0.162c-1.054,0.324-2.026,1.053-2.755,1.863
		c-1.621,1.054-2.836,2.836-3.89,4.376c-0.521,0.944-0.809,1.16-1.216,1.945c-0.567,1.297-1.54,2.431-1.297,3.971
		c-0.405,0.405,0.163,1.215-0.405,1.54c-0.324,0.162-0.648,0.08-0.891,0c-0.244-0.082-0.568-0.406-0.568-0.729
		c0.973-4.62,4.539-8.266,7.618-11.994c0.243-0.405-0.162-0.567-0.405-0.729c-1.053,0.081-2.107,0.081-2.917,0.567
		c-2.106,1.216-3.89,3.242-5.348,5.187c-0.759,1.471-1.598,2.97-2.069,4.594c-0.594,1.869-1.108,6.157,2.393,8.291
		c2.121,1.292,4.481,2.015,6.117,2.398c0.263,0.208,0.57,0.21,0.882,0.19c0.491,0.097,0.844,0.15,1.026,0.176
		c0.082,0.401,0.241,0.804,0.402,1.206c-1.135,0.891-2.35-0.567-3.566,0.081c-0.486,1.135-0.972,2.269-1.62,3.322
		c-0.649,1.216-1.54,2.27-1.864,3.646c-0.243,0.081-0.567,0.324-0.891,0.162c-0.405-0.162-0.973-0.566-0.892-1.054
		c1.377-1.62,2.593-3.241,3.565-5.104c0.072-0.181,0.174-0.377,0.247-0.574c0.187-0.38,0.249-0.64,0.249-0.64
		s-4.109-1.43-6.209-3.35c-2.099-1.921-2.055-4.154-2.055-4.154l-0.215-0.04c-0.201-0.171-0.482-0.247-0.768-0.076
		c-0.051,0.042-0.095,0.087-0.145,0.13c-1.586,1.716-5.869,6.551-9.111,12.001c-0.62,1.069-1.218,2.14-1.684,3.267
		c-0.081,0.729-0.587,1.338-0.778,2.295c0.191,0.43,0.294,0.297,0.343,0.563c1.113,1.782,2.974,3.839,6.066,5.544
		c1.116,0.3,2.082,0.944,3.198,1.291c1.48-1.528,3.158-2.541,5.013-3.014c-0.328-1.193-0.962-2.157-1.361-3.357
		c-0.649-3.16-1.864-6.159-1.945-9.644c0.081-0.811-0.81-0.242-1.215-0.323c-0.73-1.135,0.729-1.621,1.215-2.432l0.325-0.081
		c0.486,0.243,0.486,0.892,0.648,1.297c-0.054,0.413-0.055,0.803-0.03,1.183c0.445,2.749,1.606,8.57,3.937,12.587
		c0.157,0.192,0.325,0.368,0.522,0.48c0.358,0.007,0.726,0.047,1.096,0.111c0.083,0.011,0.163,0.028,0.243,0.049
		c0.947,0.191,1.886,0.522,2.683,0.86c0.654-0.173,1.249-0.124,1.841-0.198c1.621-1.944,3.241-4.457,5.429-5.753l0.405-2.513
		c0.73-1.863,1.702-3.565,2.351-5.51c1.458-2.27,4.538-2.107,5.916-4.62c0.486-0.648-0.081-1.377-0.324-2.025
		C278.642,398.668,276.859,398.911,275.481,398.83L275.481,398.83z"/>
</g>
</svg>
