<svg id="Layer_1" data-name="Layer 1" xmlns="http://www.w3.org/2000/svg" viewBox="0 0 182.05 178.16"><defs><style>.cls-1{fill:none;}.cls-2,.cls-3{fill:#fff;}.cls-3{stroke:#fff;stroke-miterlimit:10;stroke-width:0.28px;}.cls-4{fill:#c4c4c4;}.cls-5{fill:#de3b26;}.cls-6{fill:#aac938;}.cls-7{fill:#40bbc7;}.cls-8{fill:#3f9cd6;}.cls-9{fill:#ed3c34;}.cls-10{fill:#ed7e22;}.cls-11{fill:#6a4da0;}.cls-12{fill:#793c97;}.cls-13{fill:#eeda13;}.cls-14{fill:#eb1288;}</style></defs><title>logo_b</title><path id="_Path_" data-name="&lt;Path&gt;" class="cls-1" d="M547.1,450.73c.35-.25,2,3.79,2.3,5.25s-9.59,8.41-13.17,1.48c-.64-2.93,2.7-3.33,3.55-3.18C537.41,456.11,545.51,458,547.1,450.73Z" transform="translate(-380.03 -283.01)"/><path class="cls-2" d="M549.72,455.9a25,25,0,0,0-1.09-3.13c-.9-2.18-1.2-2.3-1.35-2.35a.39.39,0,0,0-.37,0l-.11.07,0,.13c-.94,4.31-4.07,4.87-5,4.94-1.13.09-1.9-.25-2.05-.54a4.91,4.91,0,0,0-.66.12l0,.08c.26.69,1.39,1.1,2.74,1,3-.23,4.77-2.57,5.45-4.87a26.29,26.29,0,0,1,1.81,4.66c.07.43-2.1,2.61-5.31,3.65-4.23,1.37-6.27-.51-7.23-2.35a2.94,2.94,0,0,1-.06-.53.46.46,0,0,1-.21-.2c-.12-.22-.21-.45-.31-.68a3,3,0,0,0-.05,1.59l0,.08a5.6,5.6,0,0,0,5.15,3.22,9.75,9.75,0,0,0,3.37-.68C547.26,459.11,550,456.93,549.72,455.9Z" transform="translate(-380.03 -283.01)"/><path id="_Path_2" data-name="&lt;Path&gt;" class="cls-1" d="M538.53,450.43c-2.52,1.13-8-.88-8-.88s-1.75,2.21,2.23,5.5c.56.52,4.1,1.13,4.1,1.13l2-2.16S541,449.3,538.53,450.43Z" transform="translate(-380.03 -283.01)"/><path class="cls-3" d="M531.06,450.09a20.1,20.1,0,0,0,5.4,1,3.46,3.46,0,0,1,.7-.68c-2.62.24-6.52-1.15-6.56-1.17l-.22-.08-.08.1A3.29,3.29,0,0,1,531.06,450.09Z" transform="translate(-380.03 -283.01)"/><path id="_Path_3" data-name="&lt;Path&gt;" class="cls-1" d="M530.63,460.48a3.62,3.62,0,0,0,2.35-.86l3.82-3.81s-6.34-6.78-6.69-6.87c-.08,0-130.07-.73-130.52-.1-1.51,2.1,2.87,9.36-1,11.48C397.15,461.11,529.87,460.38,530.63,460.48Z" transform="translate(-380.03 -283.01)"/><path class="cls-2" d="M536.23,456.34a3.57,3.57,0,0,0,0-.4l-3.45,3.44a3.74,3.74,0,0,1-2.07.77c-.21,0-6.24,0-23.42,0-33,.11-99.87.34-107.79-.1,1.68-1.56,1.1-4.42.57-7-.34-1.67-.67-3.24-.24-4,4.49-.55,126.39.42,130.22.47.55.44,3.83,3.57,6.1,6,0-.07,0-.14-.05-.21a.4.4,0,0,1,.25-.54c-5.68-6.06-6-6.16-6.11-6.19s-40.37-.23-65.21-.31c-18.84-.06-33.93.28-44.83-.06-20-.62-20.63.22-20.84.39-1.11.89-.34,2.66.06,4.63.54,2.63,1.16,5.61-.94,6.76l-.23.14.06.25c.09.35.32,1.14,12,.54,6.34-.33,15.43.07,27,.07h1.45c22.41,0,49-.09,68.48-.16,13.29,0,22.91.25,23.34.28.95.12,2.22-.9,2.61-1.28l3.17-3.16A.48.48,0,0,1,536.23,456.34Z" transform="translate(-380.03 -283.01)"/><path id="_Path_4" data-name="&lt;Path&gt;" class="cls-1" d="M540.95,455l-.8-5.31s-4.44.36-4.26,2.57.15,5.27.41,5.14A5.45,5.45,0,0,1,540.95,455Z" transform="translate(-380.03 -283.01)"/><path id="_Compound_Path_" data-name="&lt;Compound Path&gt;" class="cls-2" d="M536.28,457.78a.36.36,0,0,1-.18,0c-.27-.16-.31-.45-.41-2.85,0-.82-.07-1.74-.13-2.54-.2-2.51,4.37-2.91,4.56-2.92l.3,0,.91,6-.41,0a5.09,5.09,0,0,0-4.36,2.26l0,.07-.07,0A.36.36,0,0,1,536.28,457.78Zm3.59-7.67c-.95.13-3.78.65-3.66,2.18.06.81.1,1.74.14,2.57,0,.64.06,1.37.1,1.87a5.76,5.76,0,0,1,4.12-2Z" transform="translate(-380.03 -283.01)"/><g id="_Group_" data-name="&lt;Group&gt;"><path id="_Compound_Path_2" data-name="&lt;Compound Path&gt;" class="cls-2" d="M403.86,459v-8.59H406a3.59,3.59,0,0,1,1.21.18,2.33,2.33,0,0,1,.82.48,1.74,1.74,0,0,1,.46.69,2.43,2.43,0,0,1,.14.81v.31a2.29,2.29,0,0,1-.07.59,1.29,1.29,0,0,1-.2.42,2,2,0,0,1-.76.58,1.53,1.53,0,0,1,.77.6,2,2,0,0,1,.25,1.09v.48a2.23,2.23,0,0,1-.66,1.74,3.08,3.08,0,0,1-2.12.6Zm1.48-7.43V454H406a1.26,1.26,0,0,0,1-.31,1.38,1.38,0,0,0,.26-.9,1.2,1.2,0,0,0-.28-.87,1.42,1.42,0,0,0-1-.29Zm0,3.45v2.75H406a1.85,1.85,0,0,0,.71-.11.86.86,0,0,0,.39-.3,1,1,0,0,0,.16-.46,5.33,5.33,0,0,0,0-.58,3.22,3.22,0,0,0,0-.57.93.93,0,0,0-.17-.41.84.84,0,0,0-.39-.25A2.23,2.23,0,0,0,406,455Z" transform="translate(-380.03 -283.01)"/><path id="_Compound_Path_3" data-name="&lt;Compound Path&gt;" class="cls-2" d="M417,450.43v6.66a1.68,1.68,0,0,1-.18.78,2,2,0,0,1-.52.63,2.53,2.53,0,0,1-.77.43,2.73,2.73,0,0,1-.93.16,2.67,2.67,0,0,1-.92-.16,2.54,2.54,0,0,1-.76-.43,2.1,2.1,0,0,1-.52-.63,1.63,1.63,0,0,1-.19-.78v-6.66h1.48V457a.83.83,0,0,0,.26.68,1.09,1.09,0,0,0,1.31,0,.83.83,0,0,0,.26-.68v-6.54Z" transform="translate(-380.03 -283.01)"/><path id="_Compound_Path_4" data-name="&lt;Compound Path&gt;" class="cls-2" d="M420.61,459v-8.59H425v1.16H422.1v2.52h2.56v1.16H422.1v2.52H425V459Z" transform="translate(-380.03 -283.01)"/><path id="_Compound_Path_5" data-name="&lt;Compound Path&gt;" class="cls-2" d="M428.12,459v-8.59h1.43l2.24,5.18h0v-5.18h1.48V459h-1.4l-2.27-5.16h0V459Z" transform="translate(-380.03 -283.01)"/><path id="_Compound_Path_6" data-name="&lt;Compound Path&gt;" class="cls-2" d="M436.73,452.46a1.88,1.88,0,0,1,.22-.92,2,2,0,0,1,.58-.66,2.62,2.62,0,0,1,.79-.39,3.08,3.08,0,0,1,1.79,0,2.82,2.82,0,0,1,.81.39,2.08,2.08,0,0,1,.57.66,1.88,1.88,0,0,1,.22.92V457a1.86,1.86,0,0,1-.22.93,2,2,0,0,1-.57.64,2.64,2.64,0,0,1-.81.4,3.08,3.08,0,0,1-1.79,0,2.46,2.46,0,0,1-.79-.4,1.92,1.92,0,0,1-.58-.64,1.86,1.86,0,0,1-.22-.93Zm1.48,4.54a.75.75,0,0,0,.3.66,1.28,1.28,0,0,0,1.41,0,.75.75,0,0,0,.3-.66v-4.54a.75.75,0,0,0-.3-.66,1.28,1.28,0,0,0-1.41,0,.75.75,0,0,0-.3.66Z" transform="translate(-380.03 -283.01)"/><path id="_Compound_Path_7" data-name="&lt;Compound Path&gt;" class="cls-2" d="M450,452.9h-1.48v-.28a1.15,1.15,0,0,0-.24-.73,1,1,0,0,0-.81-.31,1.09,1.09,0,0,0-.49.1.82.82,0,0,0-.46.6,1.94,1.94,0,0,0,0,.42,3.39,3.39,0,0,0,0,.42.71.71,0,0,0,.11.3.73.73,0,0,0,.25.23,2.51,2.51,0,0,0,.46.19l1.13.37a3,3,0,0,1,.8.37,1.68,1.68,0,0,1,.48.49,2,2,0,0,1,.22.66,5.41,5.41,0,0,1,.06.84,3.7,3.7,0,0,1-.13,1,2,2,0,0,1-.42.79,2.07,2.07,0,0,1-.8.53,3.33,3.33,0,0,1-1.21.19,3.12,3.12,0,0,1-1-.16,2.47,2.47,0,0,1-.8-.43,2.15,2.15,0,0,1-.53-.65,1.68,1.68,0,0,1-.2-.8v-.46h1.48V457a.89.89,0,0,0,.24.61,1,1,0,0,0,.81.27,1.54,1.54,0,0,0,.59-.09.74.74,0,0,0,.33-.26.84.84,0,0,0,.14-.4c0-.16,0-.33,0-.52a4.32,4.32,0,0,0,0-.56.83.83,0,0,0-.12-.35.77.77,0,0,0-.27-.22,3.85,3.85,0,0,0-.44-.18l-1.06-.36a2.3,2.3,0,0,1-1.29-.86,2.54,2.54,0,0,1-.33-1.35,2.63,2.63,0,0,1,.16-.92,2,2,0,0,1,.48-.75,2.2,2.2,0,0,1,.78-.5,3.06,3.06,0,0,1,1.13-.19,2.9,2.9,0,0,1,1,.17,2.69,2.69,0,0,1,.79.45,1.72,1.72,0,0,1,.67,1.33Z" transform="translate(-380.03 -283.01)"/><path id="_Compound_Path_8" data-name="&lt;Compound Path&gt;" class="cls-2" d="M457.51,459l2.31-8.59h1.24l2.31,8.59h-1.48l-.44-1.85h-2L459,459Zm3.67-3-.73-3.11h0l-.73,3.11Z" transform="translate(-380.03 -283.01)"/><path id="_Compound_Path_9" data-name="&lt;Compound Path&gt;" class="cls-2" d="M466.32,459v-8.59h1.48V459Z" transform="translate(-380.03 -283.01)"/><path id="_Compound_Path_10" data-name="&lt;Compound Path&gt;" class="cls-2" d="M471.43,459v-8.59h2.39q2.62,0,2.62,2.52a2.71,2.71,0,0,1-.28,1.29,2,2,0,0,1-1,.86l1.6,3.92h-1.57l-1.38-3.67h-.89V459Zm1.48-7.43v2.68h.84a1.77,1.77,0,0,0,.63-.09.82.82,0,0,0,.36-.26,1,1,0,0,0,.16-.42,3.78,3.78,0,0,0,0-1.15,1,1,0,0,0-.17-.43,1.31,1.31,0,0,0-1-.34Z" transform="translate(-380.03 -283.01)"/><path id="_Compound_Path_11" data-name="&lt;Compound Path&gt;" class="cls-2" d="M479.81,459v-8.59h4.42v1.16h-2.94v2.52h2.56v1.16h-2.56v2.52h2.94V459Z" transform="translate(-380.03 -283.01)"/><path id="_Compound_Path_12" data-name="&lt;Compound Path&gt;" class="cls-2" d="M492.18,452.9h-1.48v-.28a1.15,1.15,0,0,0-.24-.73,1,1,0,0,0-.81-.31,1.09,1.09,0,0,0-.49.1.82.82,0,0,0-.46.6,1.94,1.94,0,0,0,0,.42,3.39,3.39,0,0,0,0,.42.71.71,0,0,0,.11.3.73.73,0,0,0,.25.23,2.51,2.51,0,0,0,.46.19l1.13.37a3,3,0,0,1,.8.37,1.68,1.68,0,0,1,.48.49,2,2,0,0,1,.22.66,5.41,5.41,0,0,1,.06.84,3.7,3.7,0,0,1-.13,1,2,2,0,0,1-.42.79,2.07,2.07,0,0,1-.8.53,3.33,3.33,0,0,1-1.21.19,3.12,3.12,0,0,1-1-.16,2.47,2.47,0,0,1-.8-.43,2.15,2.15,0,0,1-.53-.65,1.68,1.68,0,0,1-.2-.8v-.46h1.48V457a.89.89,0,0,0,.24.61,1,1,0,0,0,.81.27,1.54,1.54,0,0,0,.59-.09.74.74,0,0,0,.33-.26.84.84,0,0,0,.14-.4c0-.16,0-.33,0-.52a4.32,4.32,0,0,0,0-.56.83.83,0,0,0-.12-.35.77.77,0,0,0-.27-.22,3.85,3.85,0,0,0-.44-.18l-1.06-.36a2.3,2.3,0,0,1-1.29-.86,2.54,2.54,0,0,1-.33-1.35,2.63,2.63,0,0,1,.16-.92,2,2,0,0,1,.48-.75,2.2,2.2,0,0,1,.78-.5,3.06,3.06,0,0,1,1.13-.19,2.9,2.9,0,0,1,1,.17,2.69,2.69,0,0,1,.79.45,1.72,1.72,0,0,1,.67,1.33Z" transform="translate(-380.03 -283.01)"/><path id="_Compound_Path_13" data-name="&lt;Compound Path&gt;" class="cls-2" d="M500.15,459v-1.16l2.68-4.19a1.36,1.36,0,0,0,.23-.55,4.89,4.89,0,0,0,0-.59c0-.1,0-.21,0-.33a.69.69,0,0,0-.08-.31.61.61,0,0,0-.22-.22.81.81,0,0,0-.42-.09.83.83,0,0,0-.53.16.55.55,0,0,0-.2.46v.7h-1.48v-.68a1.55,1.55,0,0,1,.17-.72,1.91,1.91,0,0,1,.48-.59,2.23,2.23,0,0,1,.7-.4,2.49,2.49,0,0,1,.87-.15,2.56,2.56,0,0,1,1,.18,1.8,1.8,0,0,1,1.08,1.16,2.67,2.67,0,0,1,.12.82q0,.31,0,.52a2.66,2.66,0,0,1-.06.4,1.56,1.56,0,0,1-.15.39q-.1.19-.28.47l-2.18,3.49h2.68V459Z" transform="translate(-380.03 -283.01)"/><path id="_Compound_Path_14" data-name="&lt;Compound Path&gt;" class="cls-2" d="M507.74,452.2a1.6,1.6,0,0,1,.18-.77,1.85,1.85,0,0,1,.49-.58,2.2,2.2,0,0,1,.71-.37,2.82,2.82,0,0,1,1.67,0,2.21,2.21,0,0,1,.71.37,1.85,1.85,0,0,1,.49.58,1.6,1.6,0,0,1,.18.77v5a1.6,1.6,0,0,1-.18.77,1.85,1.85,0,0,1-.49.58,2.2,2.2,0,0,1-.71.37,2.82,2.82,0,0,1-1.67,0,2.19,2.19,0,0,1-.71-.37,1.85,1.85,0,0,1-.49-.58,1.6,1.6,0,0,1-.18-.77Zm1.48,5a.56.56,0,0,0,.2.44.87.87,0,0,0,1,0,.56.56,0,0,0,.2-.44v-5a.56.56,0,0,0-.2-.44.87.87,0,0,0-1,0,.56.56,0,0,0-.2.44Z" transform="translate(-380.03 -283.01)"/><path id="_Compound_Path_15" data-name="&lt;Compound Path&gt;" class="cls-2" d="M515.34,459v-1.16l2.68-4.19a1.36,1.36,0,0,0,.23-.55,4.89,4.89,0,0,0,0-.59c0-.1,0-.21,0-.33a.69.69,0,0,0-.08-.31.61.61,0,0,0-.22-.22.81.81,0,0,0-.42-.09.83.83,0,0,0-.53.16.55.55,0,0,0-.2.46v.7h-1.48v-.68a1.55,1.55,0,0,1,.17-.72,1.91,1.91,0,0,1,.48-.59,2.23,2.23,0,0,1,.7-.4,2.49,2.49,0,0,1,.87-.15,2.56,2.56,0,0,1,1,.18,1.8,1.8,0,0,1,1.08,1.16,2.67,2.67,0,0,1,.12.82q0,.31,0,.52a2.66,2.66,0,0,1-.06.4,1.56,1.56,0,0,1-.15.39q-.1.19-.28.47l-2.18,3.49h2.68V459Z" transform="translate(-380.03 -283.01)"/><path id="_Compound_Path_16" data-name="&lt;Compound Path&gt;" class="cls-2" d="M524.69,459v-7.29l-1.48.9v-1.3l1.48-.9h1.48V459Z" transform="translate(-380.03 -283.01)"/></g><g id="triangle36"><path id="_Path_5" data-name="&lt;Path&gt;" class="cls-4" d="M552.11,414.5h.08" transform="translate(-380.03 -283.01)"/><path id="_Path_6" data-name="&lt;Path&gt;" class="cls-4" d="M552.12,414.3" transform="translate(-380.03 -283.01)"/></g><g id="triangle36-2" data-name="triangle36"><path id="_Compound_Path_17" data-name="&lt;Compound Path&gt;" class="cls-4" d="M401.78,417.32a.1.1,0,0,1,.15.12m-.3.23" transform="translate(-380.03 -283.01)"/></g><g id="triangle36-3" data-name="triangle36"><path id="_Compound_Path_18" data-name="&lt;Compound Path&gt;" class="cls-4" d="M524.26,415.49a.1.1,0,0,1-.06.05h0l-.06,0m0-.23" transform="translate(-380.03 -283.01)"/></g><g id="triangle36-4" data-name="triangle36"><path id="_Path_7" data-name="&lt;Path&gt;" class="cls-4" d="M552.37,414.38" transform="translate(-380.03 -283.01)"/><path id="_Path_8" data-name="&lt;Path&gt;" class="cls-4" d="M552.09,414.32a.1.1,0,0,0,0,.18" transform="translate(-380.03 -283.01)"/></g><path id="_Compound_Path_19" data-name="&lt;Compound Path&gt;" class="cls-2" d="M380,444.73V414.59H402V420H388.06v8H400v5.42H388.06v11.31Z" transform="translate(-380.03 -283.01)"/><path id="_Compound_Path_20" data-name="&lt;Compound Path&gt;" class="cls-2" d="M459.54,436.69c0-4.77-17.06-4.13-17.06-13.63,0-5,5.39-8.9,13-8.9,6.18,0,10,2.32,11.25,3.61l-5,4.86a9.29,9.29,0,0,0-6.92-2.79c-2.64,0-4.12,1.2-4.12,2.71,0,4.86,17,4.13,17,13.72,0,4.51-4.6,8.9-14,8.9-7.13,0-11.57-2.58-12.84-3.74l4.6-5.42a14.74,14.74,0,0,0,9.3,3.61C458,439.62,459.54,438.28,459.54,436.69Z" transform="translate(-380.03 -283.01)"/><path id="_Compound_Path_21" data-name="&lt;Compound Path&gt;" class="cls-2" d="M489.76,436.69c0-4.77-17.06-4.13-17.06-13.63,0-5,5.39-8.9,13-8.9,6.18,0,10,2.32,11.25,3.61l-5,4.86a9.29,9.29,0,0,0-6.92-2.79c-2.64,0-4.12,1.2-4.12,2.71,0,4.86,17,4.13,17,13.72,0,4.51-4.6,8.9-14,8.9-7.13,0-11.57-2.58-12.84-3.74l4.6-5.42a14.74,14.74,0,0,0,9.3,3.61C488.23,439.62,489.76,438.28,489.76,436.69Z" transform="translate(-380.03 -283.01)"/><path id="_Compound_Path_22" data-name="&lt;Compound Path&gt;" class="cls-2" d="M502.76,438.2l-1.64-5L515.59,415h9v17.89h4.86v5.29h-4.86v6.54H517V438.2Zm14.53-16.47c-1.11,1.76-2.48,3.74-3.86,5.55l-4.28,5.63H517v-2.36a62.56,62.56,0,0,1,.53-8.81Z" transform="translate(-380.03 -283.01)"/><path id="_Compound_Path_23" data-name="&lt;Compound Path&gt;" class="cls-2" d="M562.08,417.65l-5.18,4.6a9.53,9.53,0,0,0-6.76-2.41c-4.86,0-9,2.19-9,9.33,0,7.44,3,10.66,9.14,10.66a13.64,13.64,0,0,0,3.49-.43V429.21h8.08V442.5c-2.69,1.5-6.39,2.67-13.26,2.67-10.51,0-15.74-5.16-15.74-15.22,0-10.88,7.77-15.78,17.59-15.78C557.75,414.16,561.08,416.7,562.08,417.65Z" transform="translate(-380.03 -283.01)"/><path d="M421.51,418.37v0h0v0Z" transform="translate(-380.03 -283.01)"/><path d="M421.19,419.39l.2,0C421.34,419.43,421.29,419.45,421.19,419.39Z" transform="translate(-380.03 -283.01)"/><path d="M418.73,419.66a.94.94,0,0,1,.09-.12l.09.09c0,.06,0,.1-.06.14Z" transform="translate(-380.03 -283.01)"/><path d="M416.95,420.1h0Z" transform="translate(-380.03 -283.01)"/><path class="cls-2" d="M416.06,417.52s0-.08,0-.09-.12,0-.14.12A.12.12,0,0,0,416.06,417.52Zm.27.44s.05,0,.08,0a0,0,0,0,0,0,0l-.09,0Zm8.49,16.68.24.32C425.17,434.82,425.1,434.7,424.82,434.64Zm0,4.9a.19.19,0,0,0,0-.08h0a.19.19,0,0,0,0,.07Zm-1.39-3.61a.19.19,0,0,0,.24.09C423.6,435.94,423.54,435.89,423.43,435.93Zm.89,3.79c0-.09.12-.11.09-.23l-.17.07c0,.06,0,.1,0,.15ZM422.54,436c-.05-.09-.13-.06-.19-.08a1,1,0,0,0-.07.15Zm-.31,4.16a.45.45,0,0,1-.1.13.2.2,0,0,0-.1.22.84.84,0,0,0,.49-.08.07.07,0,0,0,0-.05,2.1,2.1,0,0,0,.09-.42s-.07-.09-.12-.13a.57.57,0,0,0-.16,0C422.32,439.9,422.28,440,422.23,440.14Zm-.5-3.75.39-.25s-.06-.06-.07,0l-.39.17s0,0,0,.06Zm.07-2.54c.14.11.21,0,.29-.07l.1-.09c-.16-.17-.39-.07-.56-.16,0,0,0,0,0,0l.08.11c-.09,0-.09.09,0,.15S421.76,433.83,421.8,433.85Zm.12-15.11s0,0,0,.05l.06,0s0,0,.06,0Zm-3.68-1.39c.23,0,.24,0,.24-.16Zm-.11-.3a.43.43,0,0,1,0,.07l.2-.14-.26,0A.84.84,0,0,1,418.13,417Zm-.12-.13,0-.06.08-.05-.12-.05c0,.08-.08.14,0,.2l.09,0Zm-.09-.17c0-.07-.06-.11-.14-.14S417.84,416.76,417.92,416.75Zm-.08.12-.12,0a0,0,0,0,0,0,0l.12,0S417.84,416.88,417.84,416.87Zm-.29-.38a1.83,1.83,0,0,1,.13.16C417.76,416.52,417.75,416.51,417.55,416.49Zm-.24.42a.23.23,0,0,0-.12-.33,1.09,1.09,0,0,0-.08.15A1.8,1.8,0,0,0,417.31,416.91Zm.34,1.14a.43.43,0,0,0-.57,0A.51.51,0,0,0,417.65,418Zm-.64-1.73s0,0,0,.05a.89.89,0,0,1,.22,0,.72.72,0,0,1,.22.1,1.16,1.16,0,0,1,.06-.16c-.07,0-.14-.07-.2-.06A1.86,1.86,0,0,0,417,416.32Zm1.42.73h.11s0,0,0,0h-.11A.06.06,0,0,0,418.43,417Zm.36,0c-.08,0-.13,0-.19.07h.27C418.84,417.1,418.84,417.1,418.79,417.09Zm.64,2s0,0,.05.05h.07v0l-.1,0Zm-.23-1.22a.44.44,0,0,1,.39,0l.1-.16a1.24,1.24,0,0,0-.91-.19c-.06,0-.13,0-.17,0s-.18,0-.25.05,0,0,0,.05l.15.05a1.36,1.36,0,0,1-.17.16h-.25a.41.41,0,0,0,0,.09.6.6,0,0,0,.19.06.86.86,0,0,0,.27-.05.2.2,0,0,1,.29.12A.51.51,0,0,1,419.2,417.84Zm-2.91-.72a1.19,1.19,0,0,0-.87.48l.27-.08c.1,0,.19-.12.29-.18s.21,0,.32,0l.65,0c.08,0,.1,0,.09.12l-.2,0c.16.19.34,0,.51.08l-.11.14.07,0,.59-.08c.1,0,.19-.06.29-.09v0a2.51,2.51,0,0,0-.55-.17c-.11,0-.22-.08-.33-.12a.86.86,0,0,0-.21-.07,1.52,1.52,0,0,1-.42-.06.88.88,0,0,0-.23,0A.75.75,0,0,1,416.29,417.12Zm5.25,1.45v.11h0a.36.36,0,0,1,0-.09Zm-.2-.42c0,.05.09.18.16.21v0h0c0,.13,0,.13.09.14s-.05-.1-.09-.14v0h0a2.17,2.17,0,0,0,0-.25l-.09,0h-.05S421.35,418.12,421.34,418.15Zm.08.8c.07-.06.15-.11.07-.23Zm-.16,21.27s.09,0,.13,0,0,0,.07,0c0,.21.16.27.36.28a.36.36,0,0,0,0-.32c-.12,0-.08.19-.2.14s-.08-.15-.12-.2,0-.15,0-.23a.36.36,0,0,0-.23.2A.2.2,0,0,0,421.26,440.22Zm-.22-22.3.12.06,0,0-.12-.07Zm-.1-.19.13.11C421.08,417.74,421.06,417.69,420.94,417.73Zm9.77,1.53c0-.15,0-.15-.13-.11Zm.19.43s0,0,0,0h-.13v0l.08,0S430.88,419.7,430.9,419.69Zm0-.33s0,0,0,0l-.1,0s0,0,0,0Zm.26.35-.19-.07C431,419.79,431,419.79,431.2,419.71Zm0-.17,0,.05,0-.05,0-.05S431.2,419.52,431.2,419.54ZM426.14,440l.13-.1c-.11,0-.11,0-.14.05A.11.11,0,0,0,426.14,440Zm.74,1.62s0,0,0,.05.09,0,.12-.08S426.9,441.57,426.88,441.65Zm-6.2-22.43c0,.17-.08.23-.22.22h-.06a.82.82,0,0,0-.65,0c-.13-.18-.16-.2-.42-.2,0-.06-.05-.13-.1-.24l-.12.3c-.1,0-.19.14-.35.06l.21-.16a.19.19,0,0,0-.32,0,.86.86,0,0,1-.43.23.84.84,0,0,0-.37.17s-.07.06-.07.09c0,.24-.2.33-.36.46a.83.83,0,0,0-.16-.09.65.65,0,0,0-.35-.07.38.38,0,0,0-.24.08,1.16,1.16,0,0,1-.24.14.1.1,0,0,1-.09,0c-.22-.08-.49-.1-.6-.4s.09-.54.14-.84a.73.73,0,0,0-.56-.1c-.24.07-.49.12-.74.18l-.05,0c.08-.08.06-.2.14-.29s0-.21.09-.31a2.47,2.47,0,0,0,.1-.35c.16,0,.16-.14.14-.29a.25.25,0,0,0-.09,0,2.44,2.44,0,0,0-.75.24.24.24,0,0,0-.13.2.52.52,0,0,1-.39.46,1.44,1.44,0,0,0-.31.13.65.65,0,0,1-.49.08.32.32,0,0,1-.21-.1,2.09,2.09,0,0,1-.14-.17.6.6,0,0,1-.08-.16s0,0,0,0c-.19-.28,0-.53.06-.79a.74.74,0,0,1,.35-.41l1.06-.72a.32.32,0,0,1,.25-.07c.06,0,.12,0,.18,0l.05,0c.07,0,.17.08.23-.05a1.21,1.21,0,0,1,.09-.2l.45-.12a.33.33,0,0,1,.33,0c.06.06.14,0,.2,0s.23-.09.34,0,.06,0,.1.07,0,.06,0,.09a.18.18,0,0,0,0,.24c.07.08.12.19.21.23a.25.25,0,0,1,.12.18l-.19.08a.46.46,0,0,0,.49-.61,3.75,3.75,0,0,0-.19-.41.35.35,0,0,1,.09-.47,1.66,1.66,0,0,1,.21-.16l.29-.21.11-.08.46-.17.47-.14a15.52,15.52,0,0,1,4.34-.45,15.3,15.3,0,0,1,10.07,4.26l.16.12a.34.34,0,0,0-.18.39,1.79,1.79,0,0,1,.14.13.22.22,0,0,1,0,.13.25.25,0,0,0,0,.22.43.43,0,0,1,0,.46.21.21,0,0,0,0,.11.28.28,0,0,1-.24.3.4.4,0,0,1,.16.44.24.24,0,0,0,.07.26s0,.07,0,.12,0,.1,0,.17c.16,0,.24.08.31.18s.2.29.3.45a.34.34,0,0,1,.05.14c0,.11,0,.22.06.33s0,.05.05.07a4.18,4.18,0,0,1,.67.85,2.52,2.52,0,0,0,.33.39.2.2,0,0,0,.14.06,1.52,1.52,0,0,1,1.13.57l.47.05a.26.26,0,0,1,.23.22c.15.54.33,1.09.45,1.64a14.8,14.8,0,0,1,.34,4.2s0,.09,0,.13a.15.15,0,0,1-.1.16.55.55,0,0,0-.27.23l-.17.18a1.15,1.15,0,0,0-.4.8,3.34,3.34,0,0,1-.09.52c0,.16-.06.33-.1.5a.43.43,0,0,1-.1.23,4.38,4.38,0,0,0-.24.43,4.17,4.17,0,0,0-.26.46c-.06.16-.1.33-.15.5s-.07.27-.12.39-.14.35-.22.53-.06.22-.22.21h0s-.05.06-.05.08-.21.19-.16.36a.76.76,0,0,1,0,.15.15.15,0,0,0,.09.18s.07.06.1.1,0,.08.07.09a.51.51,0,0,1,.24.38s0,.08,0,.09.07.18,0,.28a15.39,15.39,0,0,1-7.13,6.26l-.11,0h0c-.06-.08,0-.25-.17-.28a.74.74,0,0,0,.08-.13h-.21l.09-.1-.21-.4c-.06-.12-.14-.23-.29-.19a0,0,0,0,1,0,0,.35.35,0,0,1,.2-.35c.05,0,.09-.06.06-.13s-.1-.06-.16,0-.17,0-.27-.11a1.71,1.71,0,0,0-.18-.2c-.06-.08-.06-.11,0-.16s.1-.07,0-.14,0-.08,0-.12l-.19-.07.22-.12-.16-.09.08-.08.1.06c-.05-.19-.05-.19-.19-.14s-.05-.07,0-.08a.22.22,0,0,0-.05-.22,1.4,1.4,0,0,0-.38-.46c-.06,0-.1-.06-.17,0s-.19,0-.25-.13l.19-.18a.12.12,0,0,0-.2,0c-.07.05-.07.05-.16,0l.13-.17c-.06-.07-.17,0-.17-.1l-.14.13c0-.07,0-.12,0-.17s-.12,0-.15,0-.13,0-.13.06-.07.12-.16.12l-.22,0a.21.21,0,0,0-.25.15,1.55,1.55,0,0,0-.23.08.31.31,0,0,1-.28,0,1.16,1.16,0,0,0-.86.06.35.35,0,0,0-.27.29s0,.05-.06.08l.15.09v.16a1,1,0,0,1-.3,0,.3.3,0,0,0-.29.13l-.05.08c-.13-.16-.36-.12-.54.13-.13,0,0-.11,0-.18l-.11,0,.05-.09-.39-.2a.47.47,0,0,0-.14.05c0-.06-.09-.11-.09-.17a.16.16,0,0,0-.17-.15V440s.1,0,.14,0,0-.1.06-.14-.24,0-.27-.15H421c.1,0,.23,0,.28-.14s.06,0,.09-.06a.63.63,0,0,0,.37-.41.71.71,0,0,0,0-.59s0-.11,0-.16.07-.17-.07-.2V438c0-.11,0-.22-.16-.26s0-.08,0-.14l-.16,0c0-.08,0-.16,0-.23s.1-.14.15-.16.21-.05.25-.19l-.13-.05a.93.93,0,0,1,0-.13l.2,0c0-.06,0-.1,0-.14h0a.44.44,0,0,1,.16,0c.15,0,.17,0,.13-.17l.24-.08c-.1-.13-.13-.14-.26-.1a2.34,2.34,0,0,0-.49.14l0-.07-.08-.16-.71-1.52s.07,0,.08-.08.12-.19.25-.2a.2.2,0,0,0,.14-.06l-.08,0a.56.56,0,0,1-.61-.48s0-.06-.05-.1a1.8,1.8,0,0,1-.08-.21.14.14,0,0,1,.06-.18.21.21,0,0,0,.12-.22.3.3,0,0,1,.14-.23.22.22,0,0,0,.12-.22c0-.09,0-.15-.12-.15a.22.22,0,0,1-.2-.17c0-.08.07-.2.18-.24l.13,0c0-.1,0-.21,0-.31a.34.34,0,0,1,.09-.15l.18-.11a1,1,0,0,1,0-.18l-.22,0c0-.09,0-.17-.06-.29l.18.06a.27.27,0,0,0,.37-.28c0-.17,0-.21.19-.23a2.33,2.33,0,0,1,.28-.05.7.7,0,0,0,.52-.42c.06-.1,0-.16-.1-.27.09-.13,0-.22-.11-.31l0,0a.39.39,0,0,1,.16.07c.12.09.26.05.38.07s.23-.1.32-.21a2,2,0,0,0,.28-.37c0-.05.07-.08.11-.1a.76.76,0,0,0,.34-.37.81.81,0,0,1,.29-.32.35.35,0,0,0,.15-.35.46.46,0,0,1,.25-.53l.23-.14c.11-.06.24.1.36-.06s.24-.07.38-.06l.27,0s.05-.08.1-.11a.59.59,0,0,1,.16-.07.49.49,0,0,1,.17-.3c.1-.11.25-.23.24-.42s.13-.12.21-.17a.41.41,0,0,1,0-.36.2.2,0,0,0,0-.11c0-.19,0-.37.07-.56a.69.69,0,0,0,.39-.3.64.64,0,0,1,.25-.21A.87.87,0,0,0,428,424a1.24,1.24,0,0,0-.08-.51.22.22,0,0,0-.16-.12.86.86,0,0,1-.48-.31l-.28-.28a.76.76,0,0,0-.39-.16,1.39,1.39,0,0,1-.45-.14.45.45,0,0,0-.34-.07l-.06-.1a.28.28,0,0,0-.22-.2c-.15,0-.28-.15-.43-.19a1.9,1.9,0,0,1-.7-.34s0-.06,0-.08a.16.16,0,0,0-.06-.22.49.49,0,0,1-.22-.41.24.24,0,0,0-.09-.16,1.87,1.87,0,0,0-.4-.27,1.3,1.3,0,0,0-.75-.15.54.54,0,0,1-.39-.09,1.31,1.31,0,0,1-.31-.27.75.75,0,0,0-.49-.25l-.15-.23a2.18,2.18,0,0,0,.06-.22l-.58,0c-.06,0-.13,0-.18-.05S420.73,419.23,420.68,419.22Zm0-1.5s0,0,0-.06a.91.91,0,0,1-.46,0H420c-.1,0-.1.06-.07.15A1.55,1.55,0,0,0,420.66,417.72Z" transform="translate(-380.03 -283.01)"/><path class="cls-2" d="M414.48,422.87l.08-.1,0,0-.09.08Zm4.67,19.69a.93.93,0,0,0,.05-.1l-.08,0,0,.11Zm-.28.27c.13.09.13.09.33,0,0,0,0-.11,0-.18A.32.32,0,0,0,418.87,442.83Zm-4.55-20.07-.33-.07c-.12.12,0,.2,0,.3a.18.18,0,0,0,.18-.09S414.35,422.9,414.32,422.76Zm-.07-.16-.1-.06,0,0,0,0h.07Zm6.37,15.51s0-.05-.06-.07a.31.31,0,0,0-.09.07s0,.06.07.1S420.61,438.14,420.62,438.11Zm.07-.14.16.3-.12,0c0-.12-.06-.14-.13-.08l-.14.11c.07.14.14,0,.21,0s-.05.05-.05.08,0,.1,0,.11a1,1,0,0,0,.3.12c.15,0,.21,0,.29-.22,0,.19,0,.27-.2.27a.83.83,0,0,0-.15,0l-.19-.07-.08.17,0,0,0-.16h-.17c.06.15-.14.23-.05.4-.17,0-.32,0-.46-.09a.52.52,0,0,0-.33.07c-.1,0-.19.09-.29,0h-.07a.45.45,0,0,0-.37.29c0,.06.17-.06.19.08l-.18.06.27.29.05,0a.45.45,0,0,0,0,.08h.24c-.23,0-.25.3-.47.32s-.13-.18-.27,0l.07.12-.18-.1a.33.33,0,0,0-.15.36s0,.07,0,.12,0-.18-.07-.26l-.26.28-.11,0s-.05,0-.05.07a.12.12,0,0,0,.05.07H418a.73.73,0,0,0,.33-.19c-.06.12-.11.26-.3.26a.85.85,0,0,0,.11.14l-.05,0-.2,0,0,.05.14.1c-.1,0-.09.12,0,.22a1.16,1.16,0,0,1,0,.52c.14.11.19.33.39.34,0,.13,0,.24,0,.36a.6.6,0,0,0,.35,0c.09-.06.2-.08.26-.19a.19.19,0,0,1,.09-.09l.3,0c0,.06.06.15.09.26l.14-.1,0,0-.09.13c-.05.07,0,.12,0,.14l.21-.34.27.17-.19.08c.16,0,.19.1.14.2s0,.07,0,.14c.12-.17.21-.32.38-.35,0,.07,0,.16,0,.26a.76.76,0,0,1,0,.15,4.18,4.18,0,0,1-.19.6.71.71,0,0,1-.38.34.25.25,0,0,1-.3-.09l-.36.07v.17l.25-.1a.39.39,0,0,1-.16.25,2.15,2.15,0,0,1-.24.18.16.16,0,0,1-.12,0,2.23,2.23,0,0,1-.57-.12,4.21,4.21,0,0,0-.51-.12,15.38,15.38,0,0,1-10.78-10.84c0-.16-.06-.31-.11-.46a3.78,3.78,0,0,1-.1-.46c0-.16-.07-.33-.1-.49s0-.32-.07-.48,0-.32,0-.47,0-.33,0-.5A15.22,15.22,0,0,1,410,419.8l.31-.36,0-.06.52.18a.49.49,0,0,0,.24,0,.41.41,0,0,1,.22,0,1.66,1.66,0,0,0,.32,0c.23,0,.47,0,.71,0a.62.62,0,0,0,.42-.15.47.47,0,0,1,.56,0l.3.16a.35.35,0,0,0,.2,0c.18-.06.35,0,.52,0s.07,0,.09,0c.29-.08.45.15.65.26,0,0,.05.1.06.15s.09.2.21.17a.75.75,0,0,1,.33,0c0,.09,0,.12.09.15s.27,0,.41,0,0,.12,0,.21l.12-.13c.13.11.25.07.37-.05a.83.83,0,0,0-.08-.12l.18-.17.13,0h0a.69.69,0,0,0-.05.13c.1,0,.1,0,.05-.13s.09,0,.1.07.13.21.21.3a.24.24,0,0,1,.06.11c0,.15,0,.29,0,.43a1.13,1.13,0,0,0,0,.15c0,.05-.07.1-.09.16s-.11,0-.14.06-.12.16-.14.26a.29.29,0,0,1-.18.19.09.09,0,0,0-.06.07,1.51,1.51,0,0,1-.15.37.24.24,0,0,0,0,.2v.17l.19.14c-.08.1-.15.18-.21.27a.15.15,0,0,0,0,.19c0,.07.1.13.06.24a.26.26,0,0,0,.12.11.41.41,0,0,1,.29.18,5.23,5.23,0,0,1,.55.78c.1.13.22.25.32.38a.2.2,0,0,1,.06.09c-.06.15.06.2.14.27a1.62,1.62,0,0,0,.57.29,1.77,1.77,0,0,1,.38.15,1,1,0,0,1,.33.23.58.58,0,0,1,.1.32,5.09,5.09,0,0,1,0,.56s0,0,0,.06a1.3,1.3,0,0,0,0,.62,3.24,3.24,0,0,1-.05.62,2.56,2.56,0,0,1-.05.27v0c.12.2-.06.41,0,.61a1,1,0,0,1,0,.61l-.12.57a.16.16,0,0,1,0,.09.29.29,0,0,0,0,.34s0,.06-.05.09.19.2.1.35a.28.28,0,0,0,0,.09V432l.22-.08a.27.27,0,0,0,0,.08h-.16l-.14.31.1.06c0,.1-.06.21-.08.32a.45.45,0,0,0,0,.12h.1a.11.11,0,0,1,.08,0,.09.09,0,0,1,0,.07c-.21.16-.09.36-.05.55a2.64,2.64,0,0,0,.15.45,1.44,1.44,0,0,0,.28.43,1.84,1.84,0,0,0,.71.39c.07,0,.16,0,.25,0h0l.71,1.52c0,.11,0,.14.08.16l0,.07c-.12.07-.32.09-.31.3a.05.05,0,0,1,0,.05c-.18.09-.19.3-.33.42s0,0,0,.05,0,.19.15.21a.26.26,0,0,1-.1.3c-.07,0-.07-.12-.17-.1S420.72,437.89,420.69,438Z" transform="translate(-380.03 -283.01)"/><path class="cls-2" d="M462,297.94c-2.73.1-37,17.61-37,17.61l-9.8,17.11-3.63,23.9,16.52,27.15,41.67,14.92h20.1l14.68-23.18,13-20s-.44-13.1,0-14.61-6.89-17-5.38-20.91-9.81-14.54-9.81-14.54L482,297.94Z" transform="translate(-380.03 -283.01)"/><g id="_Group_2" data-name="&lt;Group&gt;"><circle id="_Path_9" data-name="&lt;Path&gt;" class="cls-5" cx="139.59" cy="23.74" r="8.81"/><path id="_Path_10" data-name="&lt;Path&gt;" class="cls-6" d="M484,285c-31.33-7.59-61.9,7.6-68.28,33.93a42,42,0,0,0-.57,16.95,42,42,0,0,1,6.33-7.09c6.37-10.12,16.53-16.66,28-16.66a29.86,29.86,0,0,1,10.79,2,24.21,24.21,0,0,1,9.65-2,23.83,23.83,0,0,1,4.81.49c2.17-.32,4.54.31,6.66-.49,25.06-9.52,43.12,18.16,45.38,41.41a41.71,41.71,0,0,0,2.42-7.12C535.54,320,515.32,292.55,484,285Z" transform="translate(-380.03 -283.01)"/><path id="_Path_11" data-name="&lt;Path&gt;" class="cls-6" d="M475,306a26.76,26.76,0,0,0-5.41-.55,27.19,27.19,0,0,0-10.84,2.28,35.4,35.4,0,0,1,3.83,1.75A50.57,50.57,0,0,1,475,306Z" transform="translate(-380.03 -283.01)"/><path id="_Path_12" data-name="&lt;Path&gt;" class="cls-7" d="M446.62,398.64c-21.66,0-39.21-20.86-39.21-46.6a54.6,54.6,0,0,1,1.92-14.42,50.34,50.34,0,0,1-1.25-5.5A46.35,46.35,0,0,0,399.52,359a47.16,47.16,0,0,0,61,44.72,51.14,51.14,0,0,1-8.92-5.47A33.36,33.36,0,0,1,446.62,398.64Z" transform="translate(-380.03 -283.01)"/><path id="_Path_13" data-name="&lt;Path&gt;" class="cls-8" d="M415.19,324.17a47.13,47.13,0,0,0-7.11,8,50.34,50.34,0,0,0,1.25,5.5A50.1,50.1,0,0,1,415.19,324.17Z" transform="translate(-380.03 -283.01)"/><path id="_Path_14" data-name="&lt;Path&gt;" class="cls-9" d="M486.44,384l.16-.25-.24,0Z" transform="translate(-380.03 -283.01)"/><g id="_Group_3" data-name="&lt;Group&gt;"><path id="_Path_15" data-name="&lt;Path&gt;" class="cls-10" d="M533.44,352A51.16,51.16,0,0,0,475,306a50.57,50.57,0,0,0-12.41,3.48A41.42,41.42,0,0,1,478,324.17,52.37,52.37,0,0,1,485.83,352c0,.29,0,.58,0,.88l1.66-.07a14.89,14.89,0,0,1,2.36,0,69.26,69.26,0,0,0-3.73-19.35c-.16-.48-.32-1-.49-1.46-3.23-9.41-2-16.27,3.29-18.83l0,0c5.75-2.73,15.81.23,19.56,7,4.24,7.66,5.47,16.75,3.6,24.27-1.51,6.07-2.87,10.31-6.54,15.24a76,76,0,0,1-8.5,9.76c-.94.74-5.73,5.23-6.92,7.39a28,28,0,0,1-4.16,5.89c.1.24.24.58.38,1l.24,0-.16.25c.48,1.35,1,3.11,1.08,3.22l.09.27h-6.18l-.46-3.27-.06-.46,0,0c0-.08.06-.15.1-.22-1.56-.42-3-.88-4.43-1.38q-.78,1.1-1.63,2.15a39,39,0,0,1-16.23,12.14,33.79,33.79,0,0,1-7.18,1.9,51.15,51.15,0,0,0,82.13-41.18C533.69,355.36,533.6,353.65,533.44,352Z" transform="translate(-380.03 -283.01)"/><path id="_Path_16" data-name="&lt;Path&gt;" class="cls-10" d="M487.81,368.23c-.13.22-.25.42-.36.59a14.84,14.84,0,0,1,5.31,1l.53.23.19.09a15.61,15.61,0,0,0,2-1.34A45.17,45.17,0,0,0,504.66,358a44.58,44.58,0,0,0,5.58-13.89,28.66,28.66,0,0,0-4.66-22.57c-4.25-6.17-23.66-12.58-18.74,10.2.29,1.34.67,2.72,1.1,4.19a68.53,68.53,0,0,1,2.94,17c0,.24,0,.48,0,.72a37.14,37.14,0,0,1-.65,7.7A22.6,22.6,0,0,1,487.81,368.23Z" transform="translate(-380.03 -283.01)"/></g><path id="_Path_17" data-name="&lt;Path&gt;" class="cls-10" d="M486.25,368.82a20.23,20.23,0,0,0,3-7.68,36.63,36.63,0,0,0,.61-7.56c-.78-.05-1.58,0-2.35,0l-1.7.07a54,54,0,0,1-2.69,15.46A24.27,24.27,0,0,1,486.25,368.82Z" transform="translate(-380.03 -283.01)"/><path id="_Path_18" data-name="&lt;Path&gt;" class="cls-11" d="M448.9,378.72a75.77,75.77,0,0,1-6.91-3.16A35.75,35.75,0,0,0,448.9,378.72Z" transform="translate(-380.03 -283.01)"/><path id="_Path_19" data-name="&lt;Path&gt;" class="cls-11" d="M432.9,369.94l-.08-.1v0Z" transform="translate(-380.03 -283.01)"/><path id="_Path_20" data-name="&lt;Path&gt;" class="cls-12" d="M476.47,364.37l-2.14-8.67c-.46.17-.91.34-1.37.53C474.2,359.44,475.4,362.21,476.47,364.37Z" transform="translate(-380.03 -283.01)"/><path id="_Path_21" data-name="&lt;Path&gt;" class="cls-12" d="M478.63,353.77a36.39,36.39,0,0,0-7.42-14.49c.82,3.43,2.24,9.59,3.59,15.5A20.7,20.7,0,0,1,478.63,353.77Z" transform="translate(-380.03 -283.01)"/><path id="_Path_22" data-name="&lt;Path&gt;" class="cls-12" d="M472.22,356.57a25.34,25.34,0,0,0-2.48,1.33c1,3.09,2.53,6,4.71,7.56,0,0,1.53,1.26,2.9,2.48l-.28-1.12A63.91,63.91,0,0,1,472.22,356.57Z" transform="translate(-380.03 -283.01)"/><path id="_Path_23" data-name="&lt;Path&gt;" class="cls-12" d="M480.93,369.49c.7-.15,1.43-.29,2.18-.4a54,54,0,0,0,2.69-15.46,50,50,0,0,0-6.13.66A55.45,55.45,0,0,1,480.93,369.49Z" transform="translate(-380.03 -283.01)"/><path id="_Path_24" data-name="&lt;Path&gt;" class="cls-12" d="M479.74,369.78l.38-.1a3,3,0,0,1,0-.77,45,45,0,0,0-1.28-14.45,32,32,0,0,0-3.84,1c.93,4,1.81,7.93,2.44,10.68l2.19,3.51Z" transform="translate(-380.03 -283.01)"/><path id="_Path_25" data-name="&lt;Path&gt;" class="cls-12" d="M467.14,377.1a8.65,8.65,0,0,1,3.11-3c-.68,0-1.77-.11-2.44-.2a19.61,19.61,0,0,1-9,2.31q-.53,0-1.07,0c-7.75-.47-15.18-6-22.1-16.45-.19-.28-.46-.77-.79-1.38-.65-1.23-1.54-3-2.5-5l-.32-.66-.52-1.08c-.78-1.61-1.56-3.25-2.27-4.73-.89-1.87-1.66-3.48-2.15-4.48a8.94,8.94,0,0,0-2.35-3.33,2.3,2.3,0,0,0-3.1.21c-.9.85-.57,1.77-.44,2.85a42.28,42.28,0,0,0,4.48,13.57c.11.23.48,1.16.59,1.38.88,1.71,1.56,2.94,2.45,4.5,1.1,1.92,6.65,9.43,8.43,10.76.4.3,3.65,2.52,4.82,3.21a75.77,75.77,0,0,0,6.91,3.16C458.27,381.77,464.37,378.57,467.14,377.1Z" transform="translate(-380.03 -283.01)"/><g id="_Group_4" data-name="&lt;Group&gt;"><path id="_Path_26" data-name="&lt;Path&gt;" class="cls-12" d="M453.54,370.57c-1.83-1-4-2.65-8.17-7.27-2.14-2.36-4-5.46-6.13-8.52-.15-.06-1.33-1.85-1.49-1.89-.87-.25-.46-.09-1.35-.09a13.89,13.89,0,0,0-1.85.14c-.49.07-1,.15-1.47.25.58,1.19,1.13,2.3,1.62,3.26.68,1.34,1.23,2.38,1.54,2.85,6.78,10.24,14,15.67,21.55,16.13a18.26,18.26,0,0,0,8.78-1.75A25.78,25.78,0,0,1,453.54,370.57Z" transform="translate(-380.03 -283.01)"/><path id="_Path_27" data-name="&lt;Path&gt;" class="cls-12" d="M478,324.17a41.42,41.42,0,0,0-15.46-14.68,35.4,35.4,0,0,0-3.83-1.75,33.54,33.54,0,0,0-12.13-2.28c-12.86,0-24.27,7.36-31.42,18.72a50.1,50.1,0,0,0-5.87,13.46A54.6,54.6,0,0,0,407.4,352c0,25.73,17.56,46.6,39.21,46.6a33.36,33.36,0,0,0,4.95-.38,33.79,33.79,0,0,0,7.18-1.9A39,39,0,0,0,475,384.22q.84-1,1.63-2.15a19.48,19.48,0,0,1-5.17-2.4,16.48,16.48,0,0,1-3.3,3.54c-26.86,17.4-48.42-17-45.78-24A8.74,8.74,0,0,1,424,356a39.65,39.65,0,0,1-4.14-13.52c-.15-1.23-.22-3,.91-4.07a3.51,3.51,0,0,1,4.4.06,9.49,9.49,0,0,1,2.56,3.59c.49,1,1.26,2.62,2.16,4.49l1.79,3.74.7,1.46c1.85-1.11,5.06.28,4.56-.82-.77-1.7-2-3.4-3-5.77-.47-1.11-1.13-2.49-1.59-3.59a32.61,32.61,0,0,1-2.32-8.75,20.93,20.93,0,0,1,0-7.7c.76-3.57,3.68-6.93,7.06-9a24.05,24.05,0,0,1,12.1-3.28c.47,0,.9.07,1.32.12a8.74,8.74,0,0,1,3.37,1.08l.14.09a9.08,9.08,0,0,1,3.89,4.72c1.28,3.86,2.57,7.35,3.82,10.71.47,1.27.93,2.5,1.37,3.72a2.75,2.75,0,0,1,.58-1.27c.69-.87,1.69-1.23,2.23-.8s.44,1.32-.11,2.14a28.34,28.34,0,0,1,2.48,1.73,3.49,3.49,0,0,1,1.31-.55c1.2-.25,2.28.09,2.42.74s-.48,1.15-1.38,1.48l.13.53a34.47,34.47,0,0,1,8.76,16.29,50.67,50.67,0,0,1,6.31-.68c0-.29,0-.58,0-.88A52.37,52.37,0,0,0,478,324.17Z" transform="translate(-380.03 -283.01)"/><path id="_Path_28" data-name="&lt;Path&gt;" class="cls-12" d="M467.77,377.57a2.73,2.73,0,0,0-.29.15c-5.83,4-7.2,4.52-13.35,4.51-11.85,0-25.78-13.77-29.43-24.77-.73,1,8.49,31.31,34.26,27.66a13.52,13.52,0,0,0,9.82-6.85C468.44,378,468.1,377.81,467.77,377.57Z" transform="translate(-380.03 -283.01)"/><path id="_Path_29" data-name="&lt;Path&gt;" class="cls-12" d="M477.36,368.9c-1.29-1.18-3-2.63-3.31-2.86a9.27,9.27,0,0,1-2-1.95,20.32,20.32,0,0,1-2.92-5.8l-.23-.7a63.36,63.36,0,0,1-1.86-8c-.08-.44-.15-.83-.21-1.15-1.26-6.42-3.36-12.08-5.8-18.63-1.25-3.37-2.55-6.86-3.83-10.74a8.4,8.4,0,0,0-3.72-4.43l-.13-.07a9.13,9.13,0,0,0-3.41-1.16c-.26,0-.54-.06-.82-.08h-.45c-3.74,0-8.22,2.59-10.62,4.05a13.4,13.4,0,0,0-6.18,8.4,19,19,0,0,0,0,6.38,46.37,46.37,0,0,0,2,8.52c.08-.24.16-.45.23-.64-.07.21-.16.42-.23.64.36,1.08.76,2.15,1.2,3.21a46.18,46.18,0,0,0,3.21,6.28c.6,1,1.16,1.8,1.67,2.54q.42.59.84,1.17a91.48,91.48,0,0,0,5.91,7.1,47,47,0,0,0,7.37,6.93,30.31,30.31,0,0,0,13.58,5.2l1.22.14c.66.06,1.32.11,2,.13l.12-.07a34.65,34.65,0,0,1,5-2.35c.68-.26,1.58-.58,2.63-.89C478.49,370,477.46,369,477.36,368.9Z" transform="translate(-380.03 -283.01)"/></g><path id="_Path_30" data-name="&lt;Path&gt;" class="cls-12" d="M467.79,336.51a.72.72,0,0,1-.15-.31.74.74,0,0,1,0-.41q-1.13-1-2.41-1.82a1.62,1.62,0,0,1-1.79.48c.36,1,.71,2,1,3,.15-.37.94-.74,1.93-.89A4.78,4.78,0,0,1,467.79,336.51Z" transform="translate(-380.03 -283.01)"/><path id="_Path_31" data-name="&lt;Path&gt;" class="cls-12" d="M466.63,338.54a4.17,4.17,0,0,1,0-.51l-.48.05a3,3,0,0,1-1.26-.12,1,1,0,0,1-.27-.14,82.74,82.74,0,0,1,2.87,10.52c.06.32.13.71.22,1.16a64,64,0,0,0,1.78,7.71,26.24,26.24,0,0,1,2.45-1.3A161,161,0,0,1,466.63,338.54Z" transform="translate(-380.03 -283.01)"/><path id="_Path_32" data-name="&lt;Path&gt;" class="cls-12" d="M467.49,338.54a146.66,146.66,0,0,0,5.23,17c.48-.2,1-.39,1.45-.56L470,337.91c-.29-.3-.59-.6-.9-.89a2.86,2.86,0,0,1-.43-.06h0a.31.31,0,0,1-.06.22,2.38,2.38,0,0,1-1.35.71A5.41,5.41,0,0,1,467.49,338.54Z" transform="translate(-380.03 -283.01)"/><circle id="_Path_33" data-name="&lt;Path&gt;" class="cls-13" cx="31.52" cy="41.16" r="6.29"/><ellipse id="_Path_34" data-name="&lt;Path&gt;" class="cls-14" cx="75.06" cy="119.75" rx="6.9" ry="5.95"/></g></svg>